<svg xmlns="http://www.w3.org/2000/svg" width="170" height="64" viewBox="0 0 170 64" fill="none">
  <path d="M8.99515 58.5012C9.26839 58.5012 9.48955 58.4102 9.65735 58.2281C9.8258 58.0454 9.91002 57.7995 9.91002 57.4886V53.4986C9.91002 53.1883 9.8258 52.9412 9.65735 52.7591C9.48955 52.577 9.26839 52.486 8.99515 52.486C8.71484 52.486 8.49046 52.5752 8.32266 52.7541C8.15422 52.9331 8.06999 53.1809 8.06999 53.4986V57.4886C8.06999 57.8063 8.15422 58.054 8.32266 58.233C8.49046 58.412 8.71484 58.5012 8.99515 58.5012ZM10.1518 58.6833C9.83609 58.9874 9.44391 59.1392 8.97458 59.1392C8.5046 59.1392 8.11757 58.9924 7.81283 58.6988C7.50808 58.4052 7.35571 58.0119 7.35571 57.5189V53.4986C7.35571 53.0056 7.51258 52.6074 7.82826 52.3033C8.14329 51.9998 8.53611 51.848 9.00544 51.848C9.47477 51.848 9.86244 51.9948 10.1672 52.2884C10.4726 52.582 10.6249 52.9753 10.6249 53.4683V57.4886C10.6249 57.9816 10.4668 58.3798 10.1518 58.6833Z" fill="white"/>
  <path d="M14.4392 58.4932H15.0237C15.2643 58.4932 15.4539 58.3945 15.5926 58.1964C15.7318 57.9989 15.8008 57.7193 15.8008 57.3581V53.6291C15.8008 53.2679 15.7318 52.9889 15.5926 52.7908C15.4539 52.5927 15.2643 52.4939 15.0237 52.4939H14.4392V58.4932ZM13.8943 51.848H15.0482C15.4432 51.848 15.7582 52.0009 15.9934 52.306C16.2286 52.6118 16.3462 53.0424 16.3462 53.5979V57.3683C16.3462 57.9238 16.2257 58.3576 15.9851 58.6703C15.745 58.9825 15.4275 59.1392 15.0321 59.1392H13.8943V51.848Z" fill="white"/>
  <path d="M19.6155 59.1392V51.848H22.0184V52.515H20.2797V55.0254H21.7251V55.6503H20.2797V58.4722H22.0674V59.1392H19.6155Z" fill="white"/>
  <path d="M26.7084 55.5038C27.0005 55.5038 27.2307 55.405 27.3991 55.2069C27.5681 55.0095 27.652 54.726 27.652 54.3585V53.6291C27.652 53.2679 27.5681 52.9889 27.3991 52.7908C27.2307 52.5927 27.0005 52.4939 26.7084 52.4939H25.9986V55.5038H26.7084ZM28.6057 59.1392H27.9048L26.9124 56.0771C26.8672 56.0835 26.8059 56.0873 26.728 56.0873H25.9986V59.1392H25.3364V51.848H26.7185C27.2111 51.848 27.6002 52.0028 27.8858 52.3118C28.1708 52.6207 28.3135 53.0564 28.3135 53.6189V54.3272C28.3135 55.056 28.0446 55.577 27.5062 55.8892L28.6057 59.1392Z" fill="white"/>
  <path d="M31.6992 53.4623V59.1392H31.0576V51.848H31.7409L33.6853 57.4V51.848H34.3268V59.1392H33.6853L31.6992 53.4623Z" fill="white"/>
  <path d="M49.6696 53.6081V59.1392H49.0386V51.848H49.7183L51.1068 56.6708L52.4846 51.848H53.1251V59.1392H52.4947V53.6081L51.2421 57.941H50.9216L49.6696 53.6081Z" fill="white"/>
  <path d="M56.3943 59.1392V51.848H58.7972V52.515H57.0585V55.0254H58.504V55.6503H57.0585V58.4722H58.8462V59.1392H56.3943Z" fill="white"/>
  <path d="M62.0246 58.4932H62.804C63.1248 58.4932 63.3776 58.3945 63.5625 58.1964C63.7481 57.9989 63.8402 57.7193 63.8402 57.3581V53.6291C63.8402 53.2679 63.7481 52.9889 63.5625 52.7908C63.3776 52.5927 63.1248 52.4939 62.804 52.4939H62.0246V58.4932ZM61.2981 51.848H62.8367C63.3633 51.848 63.7833 52.0009 64.0969 52.306C64.4105 52.6118 64.5673 53.0424 64.5673 53.5979V57.3683C64.5673 57.9238 64.4066 58.3576 64.0858 58.6703C63.7657 58.9825 63.3423 59.1392 62.8151 59.1392H61.2981V51.848Z" fill="white"/>
  <path d="M67.0193 51.848H67.8366V59.1392H67.0193V51.848Z" fill="white"/>
  <path d="M72.6019 52.515V59.1392H72.0696V52.515H71.1057V51.848H73.5576V52.515H72.6019Z" fill="white"/>
  <path d="M76.8269 59.1392V51.848H79.2298V52.515H77.4911V55.0254H78.9366V55.6503H77.4911V58.4722H79.2788V59.1392H76.8269Z" fill="white"/>
  <path d="M83.1027 55.5038C83.3948 55.5038 83.625 55.405 83.7934 55.2069C83.9624 55.0095 84.0462 54.726 84.0462 54.3585V53.6291C84.0462 53.2679 83.9624 52.9889 83.7934 52.7908C83.625 52.5927 83.3948 52.4939 83.1027 52.4939H82.3929V55.5038H83.1027ZM84.9999 59.1392H84.2991L83.3067 56.0771C83.2615 56.0835 83.2002 56.0873 83.1223 56.0873H82.3929V59.1392H81.7307V51.848H83.1128C83.6054 51.848 83.9945 52.0028 84.2801 52.3118C84.565 52.6207 84.7078 53.0564 84.7078 53.6189V54.3272C84.7078 55.056 84.4389 55.577 83.9005 55.8892L84.9999 59.1392Z" fill="white"/>
  <path d="M89.6412 55.5038C89.9334 55.5038 90.1636 55.405 90.332 55.2069C90.5009 55.0095 90.5848 54.726 90.5848 54.3585V53.6291C90.5848 53.2679 90.5009 52.9889 90.332 52.7908C90.1636 52.5927 89.9334 52.4939 89.6412 52.4939H88.9315V55.5038H89.6412ZM91.5385 59.1392H90.8377L89.8453 56.0771C89.8001 56.0835 89.7388 56.0873 89.6609 56.0873H88.9315V59.1392H88.2693V51.848H89.6513C90.144 51.848 90.5331 52.0028 90.8186 52.3118C91.1036 52.6207 91.2464 53.0564 91.2464 53.6189V54.3272C91.2464 55.056 90.9775 55.577 90.4391 55.8892L91.5385 59.1392Z" fill="white"/>
  <path d="M94.1924 56.7122H95.3865L94.7895 53.1602L94.1924 56.7122ZM93.1731 59.1392L94.5047 51.848H95.1107L96.4423 59.1392H95.7813L95.478 57.2848H94.1003L93.7976 59.1392H93.1731Z" fill="white"/>
  <path d="M100.193 53.4623V59.1392H99.7114V51.848H100.224L101.682 57.4V51.848H102.163V59.1392H101.682L100.193 53.4623Z" fill="white"/>
  <path d="M105.433 59.1392V51.848H107.836V52.515H106.097V55.0254H107.542V55.6503H106.097V58.4722H107.885V59.1392H105.433Z" fill="white"/>
  <path d="M111.356 56.7122H112.55L111.953 53.1602L111.356 56.7122ZM110.336 59.1392L111.668 51.848H112.274L113.606 59.1392H112.945L112.641 57.2848H111.264L110.961 59.1392H110.336Z" fill="white"/>
  <path d="M117.356 53.4623V59.1392H116.875V51.848H117.387L118.846 57.4V51.848H119.327V59.1392H118.846L117.356 53.4623Z" fill="white"/>
  <path d="M134.039 59.1392V51.848H134.742V55.2229L136.408 51.848H137.204L135.383 55.3477L137.308 59.1392H136.511L134.742 55.556V59.1392H134.039Z" fill="white"/>
  <path d="M139.76 51.848H140.577V59.1392H139.76V51.848Z" fill="white"/>
  <path d="M145.342 52.515V59.1392H144.81V52.515H143.846V51.848H146.298V52.515H145.342Z" fill="white"/>
  <path d="M150.385 59.1392C149.909 59.1392 149.518 58.9973 149.21 58.7137C148.903 58.4301 148.75 58.0486 148.75 57.5698V53.4483C148.75 52.9684 148.909 52.5819 149.227 52.289C149.545 51.9948 149.942 51.848 150.417 51.848C150.885 51.848 151.27 51.9898 151.57 52.2735C151.87 52.5571 152.019 52.9349 152.019 53.4074V54.329H151.306V53.4483C151.306 53.151 151.224 52.9163 151.06 52.7442C150.895 52.572 150.677 52.4859 150.406 52.4859C150.136 52.4859 149.916 52.572 149.748 52.7442C149.58 52.9163 149.496 53.151 149.496 53.4483V57.5389C149.496 57.8361 149.58 58.0709 149.748 58.243C149.916 58.4152 150.136 58.5013 150.406 58.5013C150.677 58.5013 150.895 58.4152 151.06 58.243C151.224 58.0709 151.306 57.8361 151.306 57.5389V56.5566H152.019V57.5593C152.019 58.0318 151.864 58.4133 151.553 58.7038C151.242 58.9942 150.853 59.1392 150.385 59.1392Z" fill="white"/>
  <path d="M157.196 55.6293H155.834V59.1392H155.289V51.848H155.834V54.9623H157.196V51.848H157.74V59.1392H157.196V55.6293Z" fill="white"/>
  <path d="M161.01 59.1392V51.848H163.412V52.515H161.674V55.0254H163.119V55.6503H161.674V58.4722H163.461V59.1392H161.01Z" fill="white"/>
  <path d="M167.212 53.4623V59.1392H166.731V51.848H167.243L168.701 57.4V51.848H169.183V59.1392H168.701L167.212 53.4623Z" fill="white"/>
  <path d="M1.44841 53.6081V59.1392H0.817383V51.848H1.49709L2.88558 56.6708L4.2634 51.848H4.90392V59.1392H4.27289V53.6081L3.02093 57.941H2.70037L1.44841 53.6081Z" fill="white"/>
  <path d="M4.74017 12.6459H1.83869C1.86517 12.6727 1.89254 12.6658 1.9199 12.626C1.94726 12.5863 1.97463 12.5396 2.00199 12.486C2.02936 12.4324 2.0629 12.3797 2.10439 12.3261C2.14499 12.2725 2.17853 12.2059 2.20678 12.1255L2.24739 12.0858V12.046V11.9656C2.24739 11.9129 2.25356 11.8722 2.26769 11.8454C2.28093 11.8195 2.28799 11.7789 2.28799 11.7253V11.625V11.5256V11.3052C2.28799 11.2386 2.27387 11.1919 2.24739 11.1651L5.14886 11.0847C6.0201 9.004 6.89928 7.24312 7.78464 5.80209C8.66912 4.36192 9.5889 3.2416 10.5431 2.44112C11.4964 1.64065 12.4224 1.03986 13.3219 0.639618C14.2205 0.23938 15.0926 0.0267239 15.9374 -7.24792e-05H16.1007H16.264C16.2905 0.0267239 16.3319 0.0396919 16.3867 0.0396919H16.55C16.6585 0.0396919 16.7609 0.046608 16.8572 0.0595741C16.9516 0.0734043 17.054 0.0932865 17.1635 0.120085C16.9719 0.43993 16.8157 0.739893 16.693 1.01997C16.5703 1.30005 16.4679 1.56025 16.3867 1.80057C16.3593 1.93456 16.3258 2.06077 16.2843 2.18093C16.2437 2.30108 16.2092 2.42729 16.1819 2.56042C16.1272 2.66761 16.0865 2.78085 16.0601 2.90101C16.0318 3.02117 15.9912 3.14824 15.9374 3.28137L15.5693 3.52168C15.406 3.49488 15.2489 3.4482 15.0997 3.38164C14.9496 3.31508 14.8066 3.2416 14.6707 3.16121C14.5065 3.10848 14.3291 3.06093 14.1393 3.02117C13.9486 2.9814 13.7306 2.96152 13.4852 2.96152C12.8037 2.96152 12.2114 3.06785 11.7074 3.28137C11.2034 3.49488 10.7885 3.81559 10.461 4.24177C10.1071 4.6688 9.814 5.12264 9.58273 5.6024C9.35057 6.08304 9.16697 6.5896 9.03103 7.12297C9.03103 7.15063 9.01691 7.19039 8.99043 7.24312C8.96218 7.26992 8.94894 7.29672 8.94894 7.32352V7.40305C8.94894 7.43071 8.93481 7.47047 8.90833 7.5232C8.90833 7.55 8.90127 7.57767 8.88803 7.6036C8.87391 7.6304 8.86773 7.65719 8.86773 7.68313C8.81212 7.87071 8.77151 8.05743 8.74503 8.24415C8.71767 8.43087 8.68942 8.61759 8.66294 8.80431C8.63557 8.99104 8.60203 9.17776 8.56054 9.36448C8.51994 9.5512 8.49964 9.72408 8.49964 9.88487C8.47227 9.9912 8.45197 10.1044 8.43873 10.2246C8.42372 10.3448 8.41843 10.4589 8.41843 10.5643C8.39018 10.6715 8.36988 10.7787 8.35664 10.885C8.34251 10.9922 8.33634 11.0847 8.33634 11.1651L12.8717 11.0847C12.8452 11.1392 12.817 11.1789 12.7905 11.2049C12.7631 11.2317 12.7358 11.2455 12.7084 11.2455C12.681 11.2723 12.6607 11.2991 12.6475 11.325C12.6334 11.3518 12.6131 11.3795 12.5857 11.4054C12.5592 11.459 12.531 11.5187 12.5045 11.5852C12.4771 11.6527 12.4639 11.7123 12.4639 11.7659C12.4357 11.8454 12.4153 11.9258 12.4021 12.0054C12.388 12.0858 12.3677 12.1653 12.3412 12.2457C12.3412 12.3261 12.3474 12.4056 12.3615 12.486C12.3747 12.5664 12.395 12.6459 12.4224 12.7254L7.92764 12.6459L3.18747 29.9746H3.02329C2.96856 29.9746 2.91472 29.9616 2.85999 29.9348C2.77878 29.9348 2.70993 29.9279 2.65608 29.915C2.60135 29.9011 2.54663 29.8942 2.49278 29.8942C2.38332 29.8683 2.27387 29.8484 2.16529 29.8346C2.05584 29.8216 1.93402 29.8147 1.79808 29.8147C1.66126 29.8147 1.51827 29.8216 1.36909 29.8346C1.21814 29.8484 1.0619 29.8683 0.898601 29.8942C0.76178 29.921 0.618781 29.9409 0.469603 29.9547C0.319542 29.9686 0.163302 29.9746 0 29.9746L4.74017 12.6459Z" fill="white"/>
  <path d="M20.062 21.768C20.062 26.6638 22.2843 29.3763 25.6361 29.3763C29.1328 29.3763 31.4276 26.4529 31.4276 21.8035C31.4276 19.0564 30.5539 14.3707 25.8177 14.3707C20.062 14.3707 20.062 20.7114 20.062 21.768ZM35.1443 21.6625C35.1443 27.2631 31.1369 30.7849 25.5995 30.7849C21.7379 30.7849 16.3462 29.0945 16.3462 21.8735C16.3462 16.3785 20.1353 12.9621 25.5995 12.9621C32.5204 12.9621 35.1443 17.3651 35.1443 21.6625Z" fill="#9D3D16"/>
  <path d="M53.4487 16.5426C52.9896 16.2891 52.567 16.072 51.6143 16.072C49.6032 16.072 48.5093 17.4483 48.1559 18.1377C47.6623 19.2605 47.5921 20.0585 47.5921 24.5156C47.5921 24.8777 47.5921 26.1098 47.6276 26.8714C47.7679 29.4077 47.7679 29.6622 47.8034 30.7849C47.2742 30.6399 46.8152 30.5678 45.898 30.5678C45.0518 30.5678 44.6638 30.6399 44.1346 30.7849C44.3815 28.43 44.5227 27.197 44.5227 21.5442C44.5227 17.4483 44.3815 15.4555 44.2403 13.0997C44.7695 13.2447 45.2632 13.3168 46.0392 13.3168C46.8152 13.3168 47.2742 13.2447 47.8389 13.0997C47.5566 15.0934 47.5566 16.5426 47.5566 17.1947C48.1559 15.7455 49.8145 12.6291 53.9423 12.9912C53.8012 13.5347 53.6253 14.2598 53.6253 15.3469C53.6253 15.564 53.6253 15.782 53.6955 16.3611L53.4487 16.5426Z" fill="white"/>
  <path d="M65.7356 16.8827C64.8341 18.2621 64.7615 19.8954 64.7615 23.5977C64.7615 25.4128 64.7978 28.0262 65.0865 30.7849C64.3648 30.6397 63.8237 30.5666 63.2109 30.5666C62.5972 30.5666 62.0924 30.6397 61.3344 30.7849C61.5151 25.4128 61.5514 24.7953 61.5514 22.3636C61.5514 19.7136 61.5151 19.0605 61.2981 13.0717C61.8401 13.1439 62.3448 13.2891 63.0665 13.2891C63.752 13.2891 64.3648 13.1439 64.9058 13.0717C64.8341 13.5431 64.6898 14.7772 64.6898 16.2296C66.313 13.6162 68.4409 12.9621 70.2448 12.9621C72.6978 12.9621 74.6823 13.9066 75.6201 16.2296C77.0264 13.8336 79.5156 12.9621 81.5719 12.9621C82.6177 12.9621 84.8909 13.2161 86.2255 14.8503C87.1996 16.0478 87.3076 17.4272 87.3076 18.443C87.3076 18.8065 87.2359 23.5977 87.2359 24.5413C87.2359 26.6469 87.3439 28.7159 87.4519 30.7849C86.6939 30.6397 86.1537 30.5666 85.54 30.5666C84.8909 30.5666 84.3135 30.6397 83.6999 30.7849C84.0249 27.2635 84.0249 25.3762 84.0249 23.0167C84.0249 18.2256 83.8805 17.6081 83.3031 16.6288C82.546 15.3582 81.2832 15.1042 80.3454 15.1042C76.1612 15.1042 75.9805 19.4231 75.9805 21.7461C75.9805 24.5048 76.1249 27.9175 76.2692 30.7849C75.6918 30.6397 75.3314 30.5666 74.321 30.5666C73.3478 30.5666 72.9865 30.6397 72.5171 30.7849C72.7341 28.4611 72.8058 25.558 72.8058 23.0167C72.8058 21.6374 72.7341 18.0803 72.193 16.8827C71.4713 15.3947 70.0287 15.1042 68.982 15.1042C67.7192 15.1042 66.6017 15.539 65.7356 16.8827Z" fill="white"/>
  <path d="M105.859 21.5202C99.7475 22.4395 99.0715 23.8893 99.0715 25.7992C99.0715 28.098 100.848 28.77 102.092 28.77C103.905 28.77 105.859 27.3549 105.859 25.4103V21.5202ZM96.9396 17.4183L97.0818 15.1194C98.1835 14.2348 99.9246 12.9621 102.839 12.9621C104.224 12.9621 106.179 13.2451 107.6 14.5534C108.417 15.3313 109.057 16.3574 109.057 18.5147C109.057 19.54 108.915 23.9605 108.915 24.8799C108.915 27.9921 108.915 29.0174 110.23 29.0174C110.656 29.0174 110.94 28.9115 111.118 28.8403L111.154 29.8308C110.372 30.2198 109.59 30.6087 108.595 30.6087C107.422 30.6087 106.285 29.9012 105.895 28.3099C104.793 29.4419 103.3 30.7849 100.528 30.7849C96.8689 30.7849 95.625 28.0269 95.625 26.0822C95.625 22.3336 98.6458 21.6617 101.524 21.0254L104.615 20.3525C105.61 20.1051 105.93 19.6459 105.93 18.6553C105.93 16.2506 104.26 14.8008 101.95 14.8008C99.0008 14.8008 98.2192 16.6751 97.8991 17.4183H96.9396Z" fill="white"/>
  <path d="M129.639 18.5146C129.639 15.3781 127.624 14.1887 125.753 14.1887C122.154 14.1887 121.83 17.5774 121.83 18.9474C121.83 21.9759 123.521 23.2733 125.573 23.2733C128.847 23.2733 129.639 20.4971 129.639 18.5146ZM131.834 34.4856C131.834 31.1323 128.271 30.5915 126.005 30.5915C125.141 30.5915 120.391 30.5915 120.391 34.7378C120.391 37.4053 122.694 39.0284 126.076 39.0284C129.819 39.0284 131.834 36.9008 131.834 34.4856ZM125.429 12.962C126.256 12.962 127.012 12.9983 127.839 13.1426C129.746 13.4674 130.178 13.5037 131.582 13.5037C132.733 13.5037 133.093 13.5037 134.856 13.3594C134.82 13.6479 134.748 13.9718 134.748 14.2604C134.748 14.5852 134.82 14.8737 134.856 15.1976C133.921 15.1259 132.553 15.1259 131.546 15.1259C132.41 15.8826 133.057 17.0366 133.057 18.5872C133.057 22.4078 129.927 24.4991 125.824 24.4991C125.429 24.4991 123.377 24.3548 123.306 24.3548C122.262 24.3548 121.722 25.2204 121.722 26.0859C121.722 27.0594 121.974 27.9958 125.932 27.9958C126.328 27.9958 128.127 27.9604 128.487 27.9604C131.546 28.0321 132.625 28.6808 133.381 29.3667C134.281 30.1596 134.82 31.3491 134.82 32.7554C134.82 35.3503 132.913 40.5063 125.321 40.5063C119.527 40.5063 117.692 37.5132 117.692 35.1343C117.692 31.8173 120.894 30.7004 121.651 30.4119C119.311 29.7623 118.987 28.3932 118.987 27.4196C118.987 25.0044 121.29 24.0309 121.902 23.8867C119.419 22.9494 118.411 21.0378 118.411 18.8394C118.411 15.017 121.578 12.962 125.429 12.962Z" fill="white"/>
  <path d="M152.523 18.5146C152.523 15.3781 150.508 14.1887 148.637 14.1887C145.038 14.1887 144.714 17.5774 144.714 18.9474C144.714 21.9759 146.406 23.2733 148.457 23.2733C151.731 23.2733 152.523 20.4971 152.523 18.5146ZM154.718 34.4856C154.718 31.1323 151.155 30.5915 148.889 30.5915C148.025 30.5915 143.275 30.5915 143.275 34.7378C143.275 37.4053 145.578 39.0284 148.96 39.0284C152.703 39.0284 154.718 36.9008 154.718 34.4856ZM148.313 12.962C149.141 12.962 149.896 12.9983 150.723 13.1426C152.63 13.4674 153.062 13.5037 154.466 13.5037C155.617 13.5037 155.977 13.5037 157.74 13.3594C157.704 13.6479 157.632 13.9718 157.632 14.2604C157.632 14.5852 157.704 14.8737 157.74 15.1976C156.805 15.1259 155.437 15.1259 154.43 15.1259C155.294 15.8826 155.941 17.0366 155.941 18.5872C155.941 22.4078 152.811 24.4991 148.709 24.4991C148.313 24.4991 146.262 24.3548 146.19 24.3548C145.146 24.3548 144.607 25.2204 144.607 26.0859C144.607 27.0594 144.858 27.9958 148.816 27.9958C149.212 27.9958 151.011 27.9604 151.371 27.9604C154.43 28.0321 155.509 28.6808 156.264 29.3667C157.164 30.1596 157.704 31.3491 157.704 32.7554C157.704 35.3503 155.797 40.5063 148.205 40.5063C142.412 40.5063 140.577 37.5132 140.577 35.1343C140.577 31.8173 143.779 30.7004 144.535 30.4119C142.196 29.7623 141.872 28.3932 141.872 27.4196C141.872 25.0044 144.175 24.0309 144.787 23.8867C142.304 22.9494 141.296 21.0378 141.296 18.8394C141.296 15.017 144.463 12.962 148.313 12.962Z" fill="white"/>
  <path d="M165.951 12.9367C166.477 13.0843 166.926 13.1585 167.788 13.1585C168.65 13.1585 169.175 13.0843 169.738 12.9367C169.625 14.9645 169.512 16.6248 169.512 22.6357C169.512 24.3322 169.55 24.9586 169.775 30.7849C169.288 30.6374 168.912 30.564 167.938 30.564C166.888 30.564 166.551 30.6374 165.989 30.7849C166.139 27.9822 166.251 24.2951 166.251 21.4181C166.251 17.2141 166.101 14.8541 165.951 12.9367ZM167.938 8.88024C166.851 8.88024 165.913 7.99579 165.913 6.88956C165.913 5.74621 166.851 4.86086 167.938 4.86086C169.062 4.86086 170 5.74621 170 6.88956C170 7.99579 169.062 8.88024 167.938 8.88024Z" fill="white"/>
  <path d="M35.123 4.05077C34.6909 4.09495 34.2693 4.12809 33.8504 4.1824C33.122 4.27537 32.4085 4.44199 31.7109 4.67948C30.7214 5.01731 29.798 5.48861 28.9681 6.15322C27.8904 7.01575 27.109 8.10656 26.6337 9.4367C26.4582 9.92918 26.3347 10.4364 26.2553 10.9537C26.168 11.5254 26.1398 12.1025 26.1601 12.6815C26.1601 12.6926 26.1654 12.7027 26.1751 12.7367C26.3091 12.641 26.4396 12.5545 26.5649 12.4597C27.1293 12.0316 27.572 11.4821 27.9795 10.8985C28.05 10.7981 28.1065 10.6858 28.1876 10.5975C28.3173 10.4557 28.3137 10.3001 28.2855 10.1234C28.2123 9.67512 28.1506 9.22406 28.0871 8.77393C28.0659 8.62297 28.1435 8.5125 28.2723 8.49501C28.3975 8.47845 28.5095 8.56774 28.5316 8.70949C28.5651 8.92858 28.5933 9.14858 28.625 9.36858C28.6462 9.51495 28.6691 9.66131 28.6947 9.8316C28.8305 9.64566 28.9496 9.47628 29.0748 9.31151C29.5149 8.73159 30.0114 8.2161 30.6261 7.83593C30.7469 7.76044 30.8607 7.78622 30.9374 7.89944C30.9983 7.98965 30.9851 8.12313 30.9057 8.19861C30.8801 8.22254 30.8501 8.24279 30.8201 8.2612C30.4471 8.49317 30.1261 8.7905 29.8253 9.11452C29.8121 9.12925 29.8015 9.14766 29.783 9.17343C30.0158 9.16239 30.2345 9.15226 30.4533 9.1403C30.6808 9.12833 30.9075 9.11084 31.135 9.10163C31.2743 9.09611 31.3775 9.19369 31.3855 9.32532C31.3934 9.44499 31.3008 9.55637 31.1641 9.56834C30.9304 9.58859 30.6958 9.59963 30.4621 9.6116C30.1331 9.62817 29.8042 9.64382 29.4752 9.65671C29.4011 9.65947 29.3535 9.69445 29.3121 9.7552C28.9619 10.2698 28.6092 10.7825 28.2573 11.2952C28.2044 11.3716 28.1488 11.4462 28.0853 11.5346C28.3472 11.5115 28.5898 11.4922 28.8332 11.4683C28.9505 11.4563 29.0492 11.495 29.0951 11.5861C29.1418 11.6791 29.1436 11.7868 29.0678 11.8485C28.9999 11.9037 28.9002 11.9341 28.812 11.9433C28.4495 11.9792 28.0862 12.0013 27.7246 12.0344C27.6884 12.0372 27.6488 12.0694 27.6223 12.0998C27.3436 12.41 27.0394 12.6889 26.6928 12.9402C26.7245 12.9448 26.7457 12.9503 26.7677 12.9512C27.5826 12.9899 28.3905 12.9273 29.1859 12.7423C30.2804 12.4864 31.2814 12.0169 32.1677 11.2897C33.1043 10.5211 33.8072 9.56281 34.3134 8.44254C34.6177 7.76873 34.8329 7.06545 34.974 6.33641C35.101 5.67732 35.1433 5.01178 35.1442 4.34165C35.1442 4.30851 35.1415 4.27629 35.1389 4.24315C35.1354 4.18884 35.1301 4.13453 35.123 4.05077Z" fill="white"/>
</svg>