<svg xmlns="http://www.w3.org/2000/svg" width="171" height="85" viewBox="0 0 171 85" fill="none">
  <path d="M24.4095 73.3272C25.6166 72.0644 26.9578 71.5032 28.8354 71.5032C29.6401 71.5032 30.7131 71.6435 31.6519 72.0644C32.5907 72.4853 33.3954 73.3272 33.3954 74.3094V75.7125H31.3837V75.0109C31.3837 74.59 31.1154 74.3094 30.5789 74.0287C30.0425 73.7481 29.506 73.6078 28.8354 73.6078C27.7625 73.6078 26.8237 74.0287 26.019 74.7303C25.3484 75.4318 24.946 76.5543 24.946 77.8171C24.946 79.0799 25.3484 80.0621 26.019 81.0442C26.8237 81.8861 27.7625 82.307 28.8354 82.307C30.5789 82.307 31.9201 81.3248 32.3225 80.7636L32.4566 80.6233L33.6637 82.307C33.5295 82.4473 33.5295 82.5876 32.8589 83.0086C32.5907 83.2892 32.1884 83.4295 31.9201 83.7101C31.2495 84.131 30.0425 84.4117 28.8354 84.4117C26.9578 84.4117 25.4825 83.8504 24.4095 82.5876C23.2025 81.3248 22.666 79.7814 22.666 77.8171C22.666 75.9931 23.2025 74.4497 24.4095 73.3272Z" fill="#D73416"/>
  <path d="M35.6755 84.2714V74.0288C35.6755 73.7482 35.5414 73.6079 35.2731 73.6079H34.6025V71.6436H36.7484C37.5531 71.6436 37.9555 72.0645 37.9555 72.9063V76.9753H43.3202V72.9063C43.3202 72.0645 43.7225 71.6436 44.5272 71.6436H46.6731V73.6079H46.0025C45.7343 73.6079 45.6002 73.7482 45.6002 74.0288V84.2714H43.3202V78.9396H37.9555V84.2714H35.6755Z" fill="#D73416"/>
  <path d="M47.7461 84.2714V82.3071H48.9532V73.6079H47.7461V71.6436H52.3061V73.6079H51.099V82.3071H52.3061V84.2714H47.7461Z" fill="#D73416"/>
  <path d="M55.1215 73.3267C56.3285 72.0639 57.6697 71.5027 59.5473 71.5027C60.352 71.5027 61.425 71.643 62.3638 72.0639C63.3026 72.4849 64.1073 73.3267 64.1073 74.3089V75.712H62.0956V75.0104C62.0956 74.5895 61.8273 74.3089 61.2909 74.0283C60.7544 73.7476 60.2179 73.6073 59.5473 73.6073C58.4744 73.6073 57.5356 74.0283 56.7309 74.7298C56.0603 75.4314 55.6579 76.5538 55.6579 77.8166C55.6579 79.0794 56.0603 80.0616 56.7309 81.0437C57.5356 81.8856 58.4744 82.3065 59.5473 82.3065C61.2909 82.3065 62.632 81.3244 63.0344 80.7631L63.1685 80.6228L64.3756 82.3065C64.2414 82.4468 64.2415 82.5871 63.5709 83.0081C63.3026 83.2887 62.9003 83.429 62.632 83.7096C61.9615 84.1305 60.7544 84.4112 59.5473 84.4112C57.6697 84.4112 56.1944 83.8499 55.1215 82.5871C53.9144 81.3244 53.3779 79.7809 53.3779 77.8166C53.3779 75.9926 53.9144 74.4492 55.1215 73.3267Z" fill="#D73416"/>
  <path d="M66.3884 84.2709V74.0283C66.3884 73.7476 66.2543 73.6073 65.986 73.6073H65.3154V71.643H67.4613C68.266 71.643 68.6684 72.0639 68.6684 72.9058V76.6941H69.4731C70.0095 76.6941 70.2778 76.5538 70.4119 76.2732L72.826 71.5027H75.2401L72.5578 76.6941C72.2895 77.1151 72.0213 77.3957 71.8872 77.536L71.7531 77.6763C72.0213 77.8166 72.2895 78.0972 72.5578 78.5182L74.0331 81.7453C74.1672 82.0259 74.4354 82.1662 74.8378 82.1662H75.106V84.1305H73.899C72.9601 84.1305 72.5578 83.9902 72.1554 83.1484L70.1437 79.0794C70.0095 78.6585 69.7413 78.6585 69.0707 78.6585H68.4001V84.1305H66.3884V84.2709Z" fill="#D73416"/>
  <path d="M77.2516 73.6079H76.1787V71.6436H83.4211C84.2258 71.6436 84.6281 72.0645 84.6281 72.9063V74.8707H82.6164V74.1691C82.6164 73.8885 82.4822 73.7482 82.214 73.7482H79.5316V77.1156H83.4211V79.08H79.5316V82.0265C79.5316 82.3071 79.6658 82.4474 79.934 82.4474H82.7505C83.0187 82.4474 83.1528 82.3071 83.1528 82.0265V81.3249H85.1646V83.2892C85.1646 84.1311 84.7622 84.552 83.9575 84.552H78.4587C77.654 84.552 77.2516 84.1311 77.2516 83.2892V73.6079Z" fill="#D73416"/>
  <path d="M85.9697 84.2714V82.3071H86.6403C86.9085 82.3071 87.0427 82.1668 87.0427 81.8862V71.6436H89.0544L93.6144 78.659C93.8827 79.08 94.285 79.7815 94.4191 80.2024L94.5532 80.4831C94.4191 79.7815 94.4191 79.2203 94.4191 78.659V72.9063C94.4191 72.0645 94.8215 71.6436 95.6262 71.6436H97.9062V73.6079H97.2356C96.9674 73.6079 96.8332 73.7482 96.8332 74.0288V84.2714H94.8215L90.2615 77.2559C89.9933 76.835 89.5909 76.1335 89.4568 75.7125L89.3227 75.4319C89.4568 76.1335 89.4568 76.6947 89.4568 77.2559V83.0086C89.4568 83.8505 89.0544 84.2714 88.2497 84.2714H85.9697Z" fill="#D73416"/>
  <path d="M103.405 82.4471L104.612 80.9037C104.746 81.044 104.746 81.044 105.149 81.4649C105.685 81.8858 106.49 82.4471 107.563 82.4471C108.502 82.4471 109.306 81.8858 109.306 80.9037C109.306 80.0618 108.368 79.5006 107.295 79.0796C106.758 78.799 106.222 78.5184 105.685 78.2378C104.612 77.6765 103.674 76.5541 103.674 75.0107C103.674 74.0285 104.076 73.1866 104.746 72.4851C105.417 71.7835 106.49 71.5029 107.697 71.5029C108.234 71.5029 108.77 71.6432 109.306 71.7835C109.843 71.9239 110.245 72.2045 110.782 72.6254C111.184 73.0463 111.452 73.4673 111.452 74.0285V75.151H109.441V74.5897C109.441 74.0285 108.77 73.6076 107.831 73.6076C106.758 73.6076 106.088 74.1688 106.088 75.0107C106.088 76.1331 107.563 76.4138 108.904 77.2556C109.441 77.5362 109.843 77.8169 110.245 78.0975C111.05 78.6587 111.721 79.6409 111.721 81.044C111.721 82.0261 111.318 83.0083 110.648 83.7099C109.977 84.4114 108.904 84.8323 107.697 84.8323C105.551 84.8323 104.076 83.5695 103.674 83.1486L103.405 82.4471Z" fill="#D73416"/>
  <path d="M113.732 84.2714V74.0288C113.732 73.7482 113.598 73.6079 113.33 73.6079H112.659V71.6436H114.805C115.61 71.6436 116.012 72.0645 116.012 72.9063V76.9753H121.377V72.9063C121.377 72.0645 121.779 71.6436 122.584 71.6436H124.73V73.6079H124.059C123.791 73.6079 123.657 73.7482 123.657 74.0288V84.2714H121.377V78.9396H116.012V84.2714H113.732Z" fill="#D73416"/>
  <path d="M127.412 73.3267C128.619 72.0639 130.094 71.5027 131.838 71.5027C133.581 71.5027 135.057 72.0639 136.264 73.3267C137.471 74.5895 138.007 76.1329 138.007 77.9569C138.007 79.7809 137.471 81.3244 136.264 82.7274C135.057 83.9902 133.581 84.6918 131.838 84.6918C130.094 84.6918 128.619 83.9902 127.412 82.7274C126.205 81.4647 125.668 79.9213 125.668 77.9569C125.534 75.9926 126.205 74.4492 127.412 73.3267ZM129.021 81.0437C129.826 81.8856 130.765 82.3065 131.838 82.3065C132.911 82.3065 133.849 81.8856 134.654 81.0437C135.459 80.2019 135.727 79.0794 135.727 77.8166C135.727 76.6941 135.325 75.5717 134.654 74.7298C133.849 73.8879 132.911 73.467 131.838 73.467C130.765 73.467 129.826 73.8879 129.021 74.7298C128.217 75.5717 127.948 76.5538 127.948 77.8166C127.948 79.0794 128.217 80.2019 129.021 81.0437Z" fill="#D73416"/>
  <path d="M140.153 84.2714V73.6079H139.08V71.6436H144.579C145.652 71.6436 146.591 72.0645 147.395 72.766C148.066 73.4676 148.468 74.4497 148.468 75.7125C148.468 76.9753 148.066 77.9575 147.395 78.659C146.725 79.3606 145.786 79.7815 144.579 79.7815H142.433V84.1311H140.153V84.2714ZM142.433 77.9575H144.177C145.384 77.9575 146.188 77.1156 146.188 75.8528C146.188 74.5901 145.518 73.7482 144.311 73.7482H142.433V77.9575Z" fill="#D73416"/>
  <path d="M4.29199 31.094V44.2831H12.4732L4.29199 31.094Z" fill="#3C3C3B"/>
  <path d="M12.4729 1.90967V32.4971L4.29176 19.3081V8.92515L0 1.90967H12.4729Z" fill="#3C3C3B"/>
  <path d="M27.6284 1.90967H37.4189L27.8966 17.2034L23.0684 9.34607L27.6284 1.90967Z" fill="#3C3C3B"/>
  <path d="M37.4185 44.2828H27.6279L19.3126 30.9534L14.4844 23.0961L19.3126 15.2388L24.275 23.0961L37.4185 44.2828Z" fill="#3C3C3B"/>
  <path d="M82.7503 19.5887C81.1409 9.06544 72.4233 0.92749 61.828 0.92749C58.6092 0.92749 55.6586 1.62904 52.9762 2.89182L56.8656 9.20575C58.3409 8.64452 60.0845 8.22359 61.828 8.22359C69.6068 8.22359 75.9103 14.8181 75.9103 22.9561C75.9103 31.094 69.6068 37.6886 61.828 37.6886C54.0492 37.6886 47.7456 31.094 47.7456 22.9561C47.7456 18.8871 49.3551 15.2391 51.7692 12.5732L47.8798 6.25925C44.2586 9.62668 41.7104 14.2569 40.9056 19.4484L38.7598 22.9561L40.9056 26.4638C42.5151 37.1274 51.2327 45.125 61.828 45.125C72.4233 45.125 81.1409 36.987 82.7503 26.4638L84.8962 22.9561L82.7503 19.5887Z" fill="#3C3C3B"/>
  <path d="M90.5293 31.094V44.2831H98.7105L90.5293 31.094Z" fill="#3C3C3B"/>
  <path d="M98.7102 1.90967V32.4971L90.5291 19.3081V8.92515L86.2373 1.90967H98.7102Z" fill="#3C3C3B"/>
  <path d="M113.866 1.90967H123.522L114.134 17.2034L109.172 9.34607L113.866 1.90967Z" fill="#3C3C3B"/>
  <path d="M123.523 44.2828H113.866L105.551 30.9534L100.723 23.0961L105.551 15.2388L110.379 23.0961L123.523 44.2828Z" fill="#3C3C3B"/>
  <path d="M168.854 19.5887C167.379 9.06544 158.527 0.92749 147.932 0.92749C144.713 0.92749 141.762 1.62904 139.08 2.89182L142.969 9.20575C144.444 8.64452 146.188 8.22359 147.932 8.22359C155.71 8.22359 162.014 14.8181 162.014 22.9561C162.014 31.094 155.71 37.6886 147.932 37.6886C140.153 37.6886 133.849 31.094 133.849 22.9561C133.849 18.8871 135.459 15.2391 137.873 12.5732L133.983 6.25925C130.362 9.62668 127.814 14.2569 127.009 19.4484L124.863 22.9561L127.009 26.4638C128.619 37.1274 137.336 45.125 147.932 45.125C158.527 45.125 167.244 36.987 168.854 26.4638L171 22.9561L168.854 19.5887Z" fill="#3C3C3B"/>
  <path d="M50.8305 53.824L52.3058 50.0356L53.9152 53.824L57.6705 54.1046L54.7199 56.7705L55.6587 60.6992L52.3058 58.5945L49.087 60.6992L49.8917 56.7705L47.0752 54.1046L50.8305 53.824Z" fill="#D73416"/>
  <path d="M78.4581 55.5077C78.1898 55.9286 77.9216 56.3496 77.6534 57.0511L77.7875 55.5077V51.4387H75.6416V60.4185H77.7875L80.0675 56.3496C80.3357 55.9286 80.6039 55.5077 80.8722 54.8062L80.7381 56.3496V60.4185H82.8839V51.4387H80.7381L78.4581 55.5077Z" fill="#464646"/>
  <path d="M100.186 58.4548V57.0517H102.6V55.2276H100.186V53.5439H103.539V51.5796H98.04V59.4369V60.5594H103.807V58.5951H100.454C100.32 58.7354 100.186 58.5951 100.186 58.4548Z" fill="#464646"/>
  <path d="M121.107 54.3858H119.766V51.5796H117.62V59.016V59.7175V60.6997H120.705C122.582 60.6997 124.058 59.8579 124.058 57.4726C124.058 55.0873 122.582 54.3858 121.107 54.3858ZM120.839 58.7354H120.034C119.9 58.7354 119.766 58.5951 119.766 58.4548V56.3501H120.839C121.375 56.3501 121.778 56.771 121.778 57.4726C121.778 58.1741 121.375 58.7354 120.839 58.7354Z" fill="#464646"/>
  <path d="M69.4722 51.5796V58.4548C69.4722 58.5951 69.3381 58.7354 69.204 58.7354H67.3263V51.5796H65.1804V58.7354H63.3028C63.1687 58.7354 63.0346 58.5951 63.0346 58.4548V51.5796H60.8887V58.8757V60.6997H71.6181V51.7199H69.4722V51.5796Z" fill="#464646"/>
  <path d="M92.0037 51.5796V55.2276H89.0531V52.4214V51.5796H86.9072V60.5594H89.0531V57.0517H92.0037V60.5594H94.1496V51.5796H92.8084H92.0037Z" fill="#464646"/>
  <path d="M107.83 51.579V54.5255C107.83 56.6302 107.428 57.7527 107.026 58.3139C106.758 58.5945 106.489 58.7348 106.087 58.7348V60.6991C108.635 60.6991 109.842 58.8751 109.842 54.5255V53.4031H111.183C111.318 53.4031 111.452 53.5434 111.452 53.6837V60.5588H113.597V53.1224V51.4387H107.83V51.579Z" fill="#464646"/>
</svg>