<svg xmlns="http://www.w3.org/2000/svg" width="160" height="62" viewBox="0 0 160 62" fill="none">
  <g clip-path="url(#clip0_6_4731)">
    <path fill-rule="evenodd" clip-rule="evenodd" d="M50.3371 57.5714C50.7866 57.5714 51.0562 57.5714 51.4158 57.9257L51.8652 58.5457H51.6854V58.7229L51.4158 59.6086L51.236 59.7857V59.9629L50.7866 60.5829L50.6068 60.76C50.6068 60.9371 50.6068 61.0257 50.427 61.0257L50.1573 61.2029V61.38H49.9776L49.7978 61.4686L49.5281 61.5571L49.2585 61.7343H4.49443C3.59555 61.7343 2.78656 61.7343 2.42701 61.5571C1.86886 61.3769 1.364 61.0648 0.956594 60.6479C0.549184 60.231 0.251624 59.7221 0.0899315 59.1657C-0.0898438 59.1657 -0.0898438 58.9886 -0.0898438 58.9886V57.7486H0.0899315L0.53937 57.5714H8.08993V56.5086V54.2057C8.3476 43.8738 8.52738 33.5402 8.62926 23.2057L8.71915 22.1429H8.08993C7.91016 22.1429 7.73038 22.1429 7.46072 21.9657L7.10117 21.7L6.8315 21.3457L6.65173 20.7257C6.47195 20.3714 6.47195 20.1057 6.47195 19.7514V19.1314C6.47195 18.6886 6.47195 17.36 6.65173 16.8286C6.8315 16.8286 6.8315 16.6514 6.8315 16.6514C6.8315 16.0314 7.10117 15.6771 7.28094 15.4114C7.46072 15.2343 7.46072 15.0571 6.38207 13.9943C5.66297 13.1971 4.58431 12.2229 4.58431 10.8057C4.40454 9.92 4.58431 9.56571 5.03375 8.94571V8.76857C5.03375 8.41429 5.03375 8.23714 5.21353 8.06L5.3933 7.70571L6.02252 7.35143C6.02252 7.08571 6.29218 7.08571 6.29218 7.08571L6.65173 6.82L7.10117 6.46571L7.73038 6.37714L8.3596 6.11143H8.80903C9.25847 5.93429 9.7978 5.93429 10.2472 5.93429C10.427 5.93429 10.7866 5.93429 11.0562 5.66857C13.1236 5.49143 15.0113 5.49143 16.8989 5.49143H21.8427C21.8427 4.25143 22.1124 3.27714 23.1012 2.48C24 1.86 24.809 1.59429 25.618 1.86C25.4382 1.59429 25.1686 1.41714 24.9888 1.41714H24.3596L24.1798 1.59429H23.9102C23.5506 1.86 23.2809 1.86 22.9214 1.59429C22.7416 1.41714 22.472 0.974286 22.7416 0.62C22.9214 0.177143 23.1012 0 23.5506 0H25.618V0.177143H25.7978L26.2472 0.442857L26.427 0.62L26.8764 0.974286L27.0562 2.21429C27.3259 2.83429 27.3259 3.27714 27.3259 3.45429V4.07429L27.5057 4.25143C27.5057 4.25143 27.6854 4.42857 27.6854 4.69429V4.87143C27.8652 5.04857 27.8652 5.31429 27.8652 5.49143L28.3147 5.40286L28.7641 5.31429C28.9439 5.04857 29.3933 5.04857 29.7529 5.04857L32.0899 4.69429C32.2697 4.42857 32.4495 4.42857 32.7191 4.42857L33.7079 4.25143L34.7866 4.07429L35.8652 3.89714C36.6742 3.63143 41.2585 2.83429 42.5169 3.45429L43.1461 3.63143L43.7753 3.89714C44.4045 4.07429 44.5843 4.25143 44.9439 4.69429L45.3933 5.22571L45.8427 5.66857L46.472 7.08571C46.8315 7.70571 47.1012 9.12286 46.6517 10.1857C46.1908 10.8692 45.613 11.4686 44.9439 11.9571V12.2229C44.9439 12.4 44.7641 12.4 44.7641 12.4L44.1349 12.8429L44.4045 13.3743C44.5843 13.64 44.5843 13.9943 44.5843 14.26C44.9164 15.3882 44.9164 16.5861 44.5843 17.7143C44.4045 18.6886 44.1349 19.1314 43.9551 19.3086V19.4857C43.6474 31.6245 43.8873 43.7708 44.6742 55.8886C44.5843 56.0657 44.9439 57.1286 45.2135 57.3057L45.3933 57.5714H50.427H50.3371ZM39.8203 57.5714H43.7753C43.7753 57.3943 43.5955 57.3057 43.4158 57.2171L43.1461 57.1286L42.8764 56.2429V55.8886C42.4131 43.9649 42.0835 32.0366 41.8877 20.1057H41.3484C41.1686 20.1057 39.7304 19.9286 38.8315 18.6886C38.472 18.0686 38.0225 17.2714 38.2023 16.0314C38.6345 14.6394 39.5187 13.4257 40.7191 12.5771C40.7191 12.4 40.7191 12.2229 40.8989 12.2229H41.1686L41.7978 11.78L41.5281 11.6029L41.3484 11.4257L40.7191 10.1857H40.4495L40.1798 9.92C40 9.92 40 9.74286 40 9.74286C38.9926 9.37651 37.8972 9.31483 36.854 9.56571L36.1349 9.83143L35.4158 10.1857H35.236L34.9663 10.3629C34.7866 10.3629 34.6967 10.54 34.6068 10.6286L34.1573 10.8057L33.7978 11.16C33.6393 11.2988 33.4892 11.4467 33.3484 11.6029C33.3484 11.78 33.0787 11.78 33.0787 11.78C33.0787 11.9571 33.3484 12.2229 33.3484 12.2229L33.5281 12.4886L33.7079 12.8429L34.6068 13.9943C35.4158 15.6771 35.5955 17.0943 35.5955 18.8657V19.7514L35.4158 20.5486C35.236 21.1686 34.3371 21.9657 33.9776 22.32C33.7079 22.5857 33.0787 22.7629 33.0787 22.7629C32.7191 22.94 32.0899 22.94 31.6405 22.94L30.6517 22.5857H30.3821L30.0225 22.1429C29.8427 22.1429 29.663 21.8771 29.3933 21.5229C29.2501 21.2244 29.1003 20.9291 28.9439 20.6371L28.7641 20.1057V19.9286C28.4045 19.1314 28.4944 18.3343 28.4944 17.7143V16.4743L28.7641 15.8543L28.9439 15.2343L29.5731 12.8429L30.0225 12.4C29.5731 12.2229 29.1236 12.3114 28.5843 12.4C28.3448 12.4118 28.1048 12.4118 27.8652 12.4H27.5057C27.3259 12.4 26.427 12.8429 24.809 14.1714V14.4371L24.9888 14.6143L25.2585 15.0571C25.5281 15.5 25.9776 16.2086 26.1573 17.0943C26.4708 17.8893 26.5854 18.747 26.4915 19.5949C26.3977 20.4428 26.0981 21.256 25.618 21.9657C24.9888 22.94 24.1798 23.3829 23.2809 23.3829C21.8427 23.3829 21.0338 21.6114 20.854 20.9029V19.84C20.854 19.0429 20.9439 18.5114 21.1236 17.8029L21.2135 17.4486L21.4832 16.8286L22.1124 15.4114L22.7416 14.6143L22.9214 14.4371C23.1012 14.4371 23.1012 14.26 23.1012 14.26C22.2023 13.3743 21.3034 12.5771 20.5843 12.4C19.7753 11.9571 19.1461 11.9571 18.3371 11.9571L17.0787 12.4H16.8989C16.8989 12.4 16.8989 12.5771 16.6293 12.5771L16.4495 12.8429C16.1023 13.1217 15.7993 13.4501 15.5506 13.8171C17.5281 14.4371 19.3259 15.5886 19.7753 17.4486C20.2248 19.7514 18.7866 22.94 17.7079 23.6486L17.5281 23.8257L17.2585 24.0029V24.18H17.0787L16.8989 24.3571C16.2697 24.6229 15.6405 24.6229 15.0113 24.3571L14.5618 24.2686L14.2023 24.0029L13.5731 23.1171L13.0338 22.32L12.9439 21.9657V21.7886C12.6742 21.3457 12.4944 20.7257 12.4944 20.1057C12.3147 19.5743 12.4045 19.3086 12.4944 19.0429V18.5114C12.4944 17.8914 12.6742 17.2714 12.9439 16.8286L13.1236 16.4743C13.1236 16.0314 13.3034 15.5886 13.5731 15.4114V15.2343L13.7529 15.0571C12.6655 14.7542 11.5143 14.7542 10.427 15.0571H10.2472L9.61802 15.2343V15.4114L9.7978 15.8543H9.97757V16.0314C10.427 16.6514 11.0562 18.3343 11.0562 18.3343C11.6854 19.9286 11.236 20.7257 10.7866 21.3457C10.6068 21.5229 10.6068 21.7886 10.6068 21.7886V24.18C10.6068 26.2171 10.2472 54.9143 9.70791 56.6857V56.9514L9.61802 57.5714H39.8203ZM16.1798 23.2057C16.5342 23.0925 16.861 22.9081 17.1395 22.6641C17.4179 22.4202 17.6421 22.1221 17.7978 21.7886C17.7978 21.5229 17.7978 21.1686 18.0675 20.9029C18.6967 19.4857 19.5057 17.7143 17.1686 16.4743C16.3596 15.8543 15.7304 15.5886 15.5506 15.5886L15.2809 15.8543L15.1012 16.2086L14.9214 16.6514L14.8315 16.8286L14.7416 17.0943L14.5618 17.2714V17.4486C14.5618 17.7143 14.2922 18.0686 14.2922 18.0686C14.1124 19.3086 14.1124 20.5486 14.1124 20.9029V21.3457C14.1124 21.3457 14.2922 21.5229 14.2922 21.7886C14.472 21.9657 14.7416 22.32 14.7416 22.5857C15.1012 23.2057 15.5506 23.2057 15.9102 23.2057H16.1798ZM24.2697 15.8543L24.0899 15.6771L23.8203 16.0314C23.4607 16.4743 22.8315 17.4486 22.6517 18.5114V20.5486C22.6517 21.1686 23.0113 21.5229 23.4607 21.5229C24.0899 21.5229 24.7191 21.3457 25.0787 20.3714C25.3484 19.9286 25.7079 18.8657 25.5281 17.8914L24.2697 15.8543ZM31.1911 14.26C31.1911 14.4371 30.9214 14.6143 30.7416 14.88C30.2023 15.7657 30.0225 17.0057 29.8427 17.8914C29.8427 18.3343 29.8427 18.6 29.663 18.7771V19.1314C29.9326 19.1314 29.9326 19.3086 29.9326 19.4857V19.84L30.1124 20.1057L30.2922 20.3714V20.5486L30.5618 20.9914L30.7416 21.1686C31.3708 21.7886 32 21.7886 32.5394 21.5229H32.809L33.1686 21.3457L33.4382 21.1686C33.4382 20.9029 33.618 20.7257 33.7079 20.6371C33.7079 20.46 33.8877 20.3714 33.8877 20.3714V17.0057C33.2585 15.2343 32.9888 14.6143 32.6293 14.26L31.7304 13.3743C31.7304 13.5514 31.5506 13.64 31.4607 13.8171L31.1911 14.26ZM42.8764 13.3743C42.1573 13.8171 40.7191 14.88 40.2697 15.6771L40.0899 15.8543V16.2086C39.9102 16.74 39.7304 17.0943 40.2697 17.7143H40.3596C40.6293 18.0686 41.0787 18.5114 41.9776 18.5114C42.1573 18.5114 42.2472 18.3343 42.427 18.1571L42.6068 17.8914L42.7866 17.0057C43.0562 17.0057 43.0562 16.8286 43.0562 16.8286V14.88C43.0562 14.26 43.0562 13.8171 42.7866 13.3743H42.8764ZM22.8315 4.51714V5.04857C22.8315 5.66857 22.8315 6.11143 22.6517 6.46571C22.8315 6.90857 23.4607 7.52857 23.8203 7.52857C25.0787 7.35143 25.7079 7.08571 26.1573 5.93429C26.3371 5.66857 26.3371 5.49143 26.3371 5.31429C26.1573 5.49143 25.9776 5.49143 25.5281 5.49143H25.3484L24.8989 4.87143V4.42857C24.8989 4.25143 24.8989 4.07429 25.0787 3.89714L25.2585 3.45429L25.5281 3.01143C25.0787 2.92286 24.5394 3.01143 24.0899 3.01143C23.9402 3.01881 23.7902 3.01881 23.6405 3.01143L23.0113 3.63143V4.07429L22.8315 4.42857V4.51714ZM6.29218 11.6914L6.56184 12.1343L8.53937 14.1714C8.53937 13.9057 8.71915 13.9057 8.71915 13.9057C8.98881 13.7286 9.34836 13.2857 9.7978 13.2857C9.97757 13.1086 10.2472 13.1086 10.7866 13.1086H13.7529L14.3821 13.2857L14.5618 13.1086L14.8315 12.7543L15.2809 12.2229C15.7304 11.6914 16.1798 11.16 16.6293 11.3371C18.1573 10.4514 19.1461 10.4514 21.0338 11.3371C21.663 11.5143 22.2922 11.8686 22.8315 12.3114C23.2809 12.4886 23.7304 12.9314 23.9102 13.1971L24.1798 13.2857H24.3596L24.5394 13.1086C25.1852 12.5359 25.9118 12.0586 26.6967 11.6914C28.1349 11.0714 28.7641 11.0714 30.3821 11.0714C30.8315 11.0714 31.0113 11.0714 31.2809 11.3371L32.0899 11.6914L32.2697 11.5143L32.4495 11.3371C32.9478 10.8364 33.5244 10.4178 34.1573 10.0971L34.3371 9.83143H34.6068C34.6068 9.65429 34.7866 9.65429 34.7866 9.65429V9.47714H34.9663L35.4158 9.3C35.5956 9.3 35.6854 9.21143 35.8652 9.03429L37.4832 8.41429C38.5618 8.23714 39.5506 8.41429 40.6293 8.85714L41.5281 9.3C42.0675 9.47714 42.427 9.83143 43.1461 10.4514L43.3259 10.8057L43.5057 11.0714C43.5057 10.9829 43.5955 10.8943 43.8652 10.8057L44.1349 10.7171L44.4045 10.4514L45.2135 9.83143C45.5731 9.47714 45.5731 9.03429 45.5731 8.41429V7.97143L45.3933 7.52857C45.1236 7.08571 44.6742 6.2 43.7753 5.49143L43.5057 5.40286L43.3259 5.31429C42.8764 5.04857 42.0675 4.69429 40 4.87143L31.9102 6.28857L31.5506 6.37714L31.2809 6.46571L29.663 6.82C29.1634 6.95661 28.6517 7.04559 28.1349 7.08571L27.8652 7.52857C27.6854 7.52857 27.6854 7.70571 27.6854 7.70571C27.3259 8.14857 26.7866 8.59143 26.427 8.76857H26.3371C25.4382 8.94571 24.0899 9.3 23.5506 8.50286C22.9214 8.32572 22.472 7.70571 22.2922 7.35143C21.3034 7.44 20.3147 7.35143 19.4158 7.35143H14.3821C11.8652 7.35143 9.34836 7.70571 7.28094 8.32571C7.28094 8.32571 7.28094 8.50286 7.10117 8.50286L6.8315 8.76857L6.65173 9.12286L6.47195 9.38857H6.29218V9.56571C6.02252 9.92 5.84274 10.3629 6.02252 10.9829C6.02252 11.2486 6.20229 11.5143 6.38207 11.8686L6.29218 11.6914ZM8.44948 20.6371H8.62926C8.62926 20.6371 8.89892 20.6371 8.89892 20.8143C9.0787 20.6371 9.25847 20.46 9.25847 20.2829V19.3971C9.25847 19.0429 8.62926 17.8029 8.26971 17.0057C8.26971 17.1829 8.00004 17.36 8.00004 17.36V17.8914L7.82027 18.2457V19.22C8.00004 19.3971 8.00004 19.6629 8.00004 19.84C8.26971 20.0171 8.26971 20.2829 8.26971 20.2829L8.44948 20.6371ZM47.3708 60.4943C48.4495 60.4943 48.809 60.4943 49.4382 59.8743L49.7978 59.3429L50.0675 58.9H22.2023L1.34836 59.0771C1.66826 59.6315 2.13408 60.0905 2.69667 60.4057C3.32589 60.5829 9.16858 60.5829 11.0562 60.5829H47.4607L47.3708 60.4943ZM69.2135 8.76857L68.5843 9.12286L68.4045 9.74286L67.9551 10.1857L68.4045 10.54L68.854 11.16L69.0338 12.0457L69.4832 12.5771L69.663 13.4629L69.8427 13.9943L70.0225 14.88L70.6517 15.4114L69.663 16.0314L69.2135 14.88V13.9943L69.0338 13.3743L68.854 12.8429L68.5843 12.2229L68.2248 11.6029L67.7753 11.16L67.3259 10.9829L67.1461 11.4257V12.2229L66.9663 12.8429L67.1461 14.26V15.6771H66.0675V11.78L66.3371 10.3629V6.73143L66.0675 5.49143L66.9663 5.04857L67.3259 6.11143V9.38857L67.5956 8.94571L67.9551 8.50286L68.5843 7.97143L69.0338 7.52857L69.4832 6.90857L70.2922 6.46571L71.1911 7.70571L70.0225 7.97143L69.2135 8.76857ZM76.7641 9.12286V8.50286L76.4045 7.97143L76.045 7.08571L75.5956 6.46571L74.9663 6.11143H74.0675L72.8989 6.28857L72.2697 6.90857L72.0899 7.79429V13.02L72.2697 13.9057L72.4495 14.6143L72.8989 15.5L73.7978 15.8543H74.5169L75.4158 15.6771L76.045 15.2343L76.4045 14.26L76.6742 13.1971V9.12286H76.7641ZM75.4158 13.2857L75.1461 13.9057L74.7866 14.3486L74.1573 14.5257L73.7079 14.3486L73.3484 13.9057L73.0787 13.2857L72.8989 12.3114L72.7191 11.6914V8.14857L72.8989 7.26286L73.0787 6.73143L73.7079 6.46571L74.3371 6.73143L74.9663 7.08571L75.4158 7.97143V13.1971V13.2857ZM110.832 8.59143V12.9314L110.562 13.9057L110.202 14.9686L109.573 15.7657L108.674 15.9429H107.865L106.966 15.5L106.607 14.7029L106.427 13.9057L106.247 13.02V7.88286L106.427 6.99714L107.056 6.37714L108.315 6.2H109.214L109.753 6.55429L110.202 7.17429L110.562 8.06L110.832 8.59143ZM109.303 13.9057L109.573 13.2857L109.753 12.6657V8.32571L109.303 7.44L108.674 7.08571L108.135 6.90857H107.506L107.236 7.52857L107.056 8.41429V11.8686L107.236 12.4L107.506 13.3743L107.685 13.9943L108.135 14.4371H108.315L108.944 14.26L109.303 13.8171V13.9057ZM90.427 9.65429V8.76857L90.1573 6.11143L89.9776 5.40286L89.7978 4.34L89.5281 3.72L89.3484 2.92286L88.8989 2.03714L88.2697 1.50571L87.2809 1.06286L86.3821 0.885714H85.5731L85.2135 1.50571L84.5843 2.12571L85.2135 3.54286L86.0225 2.65714L86.9214 2.56857L87.6405 2.74571L88.2697 3.36571L88.5394 3.98571L88.7191 4.51714L88.8989 5.40286L89.3484 7.61714V7.97143L88.7191 7.35143L87.8203 6.90857L87.0113 6.73143L86.2023 6.90857L85.3933 7.35143L84.9439 8.14857L84.7641 8.94571L84.5843 9.83143V12.2229L84.7641 13.64L85.2135 14.4371L85.8427 15.3229L86.2023 15.6771L86.8315 16.0314H87.4607L88.3596 15.8543L88.8989 15.4114L89.3484 14.88L89.7978 13.9943L90.1573 12.5771L90.427 11.78V9.56571V9.65429ZM89.3484 11.0714L89.1686 11.9571V12.6657L88.8989 13.5514L88.7191 14.0829L88.5394 14.7029L88.0899 15.1457H87.6405L87.0113 14.9686L86.6517 14.7029L86.2023 14.0829L86.0225 13.4629L85.8427 12.9314V12.0457L86.0225 9.21143L86.2023 8.59143L86.6517 8.23714L87.2809 8.06H87.4607L88.0899 8.41429L89.3484 9.3V11.0714ZM82.2472 11.9571V13.2857L82.5169 13.7286V14.6143L82.0675 15.3229L81.4382 15.1457V10.8943L81.2585 9.74286L80.3596 9.92L79.7304 9.74286V14.6143L79.5506 15.2343H78.6517V5.31429L79.3708 5.04857L79.5506 5.93429L79.7304 6.73143V9.12286H80.8989L81.3484 8.94571V6.90857L81.0787 6.02286L82.1573 5.93429V7.35143L82.3371 10.3629V11.78L82.2472 11.9571ZM116.584 9.47714V8.41429L116.405 7.70571L116.225 7.08571L116.045 6.46571L115.416 6.28857H114.787L113.888 6.11143L113.258 5.66857L112.899 5.93429L113.079 6.73143V11.2486L113.258 11.9571V20.1057L114.337 19.7514L114.157 19.1314L114.337 17.4486V14.4371L115.236 14.26L115.775 13.8171L116.405 13.1971L116.584 12.4L116.854 11.16V10.6286L116.584 9.47714ZM115.596 12.4886L115.146 12.9314L114.517 13.2857L113.888 13.4629V8.14857L113.708 6.90857H114.607L115.146 7.08571L115.416 7.70571L115.596 8.94571V12.4V12.4886ZM97.2585 12.6657L97.4382 13.5514L97.8877 14.7029L98.0675 15.7657L97.0787 16.12L96.6293 14.5257L96.4495 15.4114L95.8203 15.7657L94.9214 16.12H93.3034L92.854 15.7657L92.6742 15.1457V7.97143L92.4944 7.08571L92.045 6.28857L93.4832 5.93429V13.02L93.7529 13.9057L93.9326 14.6143L94.5618 14.88L95.0113 14.6143L95.8203 13.9943L96.1798 13.1971L96.4495 12.2229V7.08571L97.4382 6.37714V10.7171L97.2585 11.6914V12.5771V12.6657ZM130.966 6.02286H129.528L128.629 6.2L128.27 6.82L128.09 7.61714L127.91 9.03429V9.92L128.09 10.6286L128.539 11.2486L128.899 11.5143L128.539 11.8686L128.09 12.4886L127.91 13.3743L127.461 14.5257L127.011 14.9686L126.202 15.5L127.281 16.12L128.27 15.3229L128.719 14.5257L128.899 13.64L129.079 13.1086L129.708 12.2229H129.978V15.9429L130.966 15.3229V7.97143L131.236 7.35143V6.2L130.966 5.84571V6.02286ZM130.337 11.0714L129.978 10.8943L129.348 10.2743L129.079 9.65429L128.899 9.21143V7.44L129.348 6.99714L129.978 6.82H130.607V7.08571L130.337 9.12286V10.9829V11.0714ZM124.045 10.8943L123.955 11.8686V12.7543L124.135 13.4629L124.494 14.7029L124.764 15.7657L123.685 16.12L123.326 14.5257L123.056 15.4114L122.427 15.7657L121.618 16.12H120L119.551 15.7657L119.371 15.1457V7.97143L119.101 7.08571L118.742 6.28857L120.18 5.93429V13.1971L120.36 14.0829L120.539 14.88H121.169L121.618 14.6143L122.517 13.9943L122.697 13.1971L123.056 12.2229V7.08571L124.135 6.37714V10.7171L124.045 10.8943ZM101.214 6.02286L100.315 5.75714H99.4158L99.5057 7.44L100.405 6.82H101.034L101.393 6.99714L101.663 7.61714V9.74286L101.393 11.9571V13.9943L101.214 15.2343L101.843 15.6771L102.472 15.4114V11.16L102.652 9.74286L102.472 9.12286V7.70571L102.652 6.90857H103.281L104.539 7.35143V6.11143L102.742 5.93429H101.214V6.02286ZM102.921 47.8286C103.101 48.7143 103.281 50.4857 103.281 52.2571L103.461 53.94C103.461 55.18 103.64 56.3314 103.91 56.5971C104.09 57.3057 104 58.1029 103.91 58.6343V59.0771C103.73 59.2543 103.73 59.6086 103.73 60.0514C103.73 60.4943 103.461 60.6714 103.101 60.6714H102.472C102.292 60.6714 101.843 60.4943 101.843 60.2286C101.663 60.14 101.663 59.3429 101.573 57.8371C101.503 56.3008 101.413 54.7655 101.303 53.2314C101.124 50.5743 100.944 48.0943 100.764 47.6514C100.115 43.9633 100.054 40.198 100.584 36.4914H100.405C100.135 36.8457 99.9551 37.4657 99.7753 38.0857V39.3257L99.3259 41.3629L98.7866 43.7543L98.5169 45.4371L98.2472 46.1457C98.2472 46.3229 98.2472 46.5886 98.0675 46.8543V47.4743C97.8877 48.4486 97.7079 48.8914 96.4495 48.8914C96.1798 48.8914 95.8203 48.7143 95.8203 48.4486L94.9214 44.3743L94.472 42.6029L94.1124 41.3629C94.1124 41.1857 93.9326 41.3629 93.9326 41.3629L94.2023 43.4L94.3821 44.02L94.2922 48.0057V53.94L94.5618 57.8371V59.0771C94.5618 59.7857 94.5618 60.14 94.3821 60.4057C94.2922 60.6714 94.0225 60.76 93.4832 61.1143H92.854C92.6742 61.1143 92.2248 60.8486 92.2248 60.6714C92.045 59.7857 92.045 58.0143 92.045 58.0143V54.0286L91.8652 52.2571V51.6371V51.3714C91.8652 51.1057 92.045 50.6629 92.045 49.7771L91.8652 28.8743V27.28C91.8652 25.7743 91.8652 25.42 93.1236 25.2429C93.3034 24.9771 93.4832 24.9771 93.7529 25.2429L93.9326 25.5971C93.9326 26.3057 94.1124 27.1914 94.2922 27.9886C94.429 28.5756 94.5489 29.1663 94.6517 29.76L94.7416 30.2914L94.9214 31L95.1911 31.7086V31.7971L95.8203 35.1629V37.9971L96.809 42.8686C97.768 37.0738 99.0584 31.337 100.674 25.6857L101.034 25.5971L101.303 25.5086C101.303 25.3314 101.483 25.3314 101.753 25.5086C103.011 26.4829 102.742 27.9 102.562 29.14V30.0257L102.742 35.4286L102.652 38.0857V38.1743L102.562 39.9457V40.3C102.292 42.78 102.202 44.5514 103.011 47.8286H102.921ZM115.056 54.2057C115.146 55.2686 115.326 56.5086 115.146 57.2171C114.966 58.1029 112.629 58.9886 111.82 58.4571C111.371 58.1029 111.371 57.9257 111.371 57.1286V56.2429C111.371 55.8 111.371 55.6229 111.191 55.3571C111.011 54.1171 110.832 45.6143 110.832 43.5771C110.832 42.6029 111.191 42.16 112.27 42.16C113.051 42.2268 113.814 42.4371 114.517 42.78C115.146 43.4 115.146 45.6143 114.966 47.6514C114.787 49.6 114.876 50.7514 114.966 51.6371V52.9657L115.056 54.2057ZM117.214 52.9657L117.303 52.4343L117.483 51.7257C117.483 51.2829 117.483 43.4 116.854 41.9829L115.955 40.92C114.337 40.1229 112.09 40.1229 112.09 40.1229H111.191V38.3514L111.101 31.2657V30.7343L111.011 28.9629C111.011 28.52 111.011 27.9 111.191 27.9L112.539 27.9886L114.157 28.1657C115.955 28.1657 116.854 28.1657 117.034 27.9C117.214 27.7229 117.483 27.5457 117.483 27.3686L117.214 26.5714C117.124 26.2171 117.034 26.1286 116.584 26.1286H109.663C109.393 26.1286 109.034 26.3057 108.764 26.4829C108.584 26.9257 108.584 27.1029 108.764 27.5457L108.944 28.4314L109.214 30.38C109.393 31.62 109.393 33.2143 109.393 34.4543V43.4C109.034 46.5886 109.214 48.0057 109.393 49.6V49.6886L109.483 50.5743L109.663 51.7257V54.9143L109.843 55.5343C110.023 56.5086 110.023 57.3057 110.023 58.5457C110.023 59.1657 110.023 59.4314 109.843 59.52L109.753 60.0514C109.753 60.3171 109.843 60.5829 110.292 61.2029C110.472 61.38 110.652 61.5571 110.921 61.5571C110.921 61.5571 112.18 61.2029 112.18 60.76H112.36C112.719 60.9371 113.438 61.1143 114.157 60.76C118.562 59.6971 118.112 57.1286 117.753 55.4457V55.3571V54.9143C117.303 54.4714 117.124 53.0543 117.303 52.8771L117.214 52.9657ZM143.011 54.6486C142.875 53.7695 142.815 52.8806 142.832 51.9914V47.8286C143.101 45.7914 143.101 43.5771 142.472 42.9571C142.472 42.9571 141.214 42.3371 140.135 42.3371C139.146 42.3371 138.697 42.78 138.697 43.7543C138.697 45.7914 138.876 54.7371 139.146 55.9771C139.326 56.1543 139.326 56.42 139.326 56.8629V57.5714C139.326 58.3686 139.326 58.4571 139.775 58.8114C140.584 59.4314 142.832 58.4571 143.101 57.66C143.191 56.9514 143.101 55.7114 143.011 54.6486ZM145.079 52.7L144.989 53.32C144.989 53.5857 144.989 55.0029 145.348 55.3571L145.438 55.8V55.8886C145.708 57.66 146.157 60.14 141.843 61.2029C140.944 61.5571 140.315 61.38 140.045 61.2914H139.775C139.775 61.6457 138.517 62.0886 138.517 62.0886C138.247 62.0886 138.067 61.9114 137.888 61.6457C137.438 61.0257 137.348 60.76 137.348 60.5829L137.438 60.0514C137.618 59.8743 137.618 59.6086 137.618 59.0771C137.618 57.8371 137.618 57.04 137.438 55.9771L137.348 55.3571L137.258 54.7371V51.9029L137.169 50.7514L137.079 49.8657V49.7771C136.809 48.1829 136.629 46.7657 137.079 43.5771V34.3657C137.079 33.1257 137.079 31.5314 136.809 30.2914L136.539 28.2543L136.449 27.3686C136.18 27.0143 136.18 26.8371 136.449 26.4829C136.629 26.2171 137.079 26.04 137.258 26.04H144.36C144.719 26.04 144.809 26.04 144.899 26.4829L145.169 27.28C145.169 27.4571 144.989 27.6343 144.719 27.8114C144.539 28.0771 143.73 28.0771 141.843 28.0771C141.303 28.0771 140.764 28.0771 140.225 27.9H138.876C138.697 27.9 138.697 28.4314 138.697 28.7857V31.2657L138.876 38.3514V40.1229H139.775C139.775 40.1229 142.023 40.1229 143.73 41.0086C143.73 41.0086 144.36 41.54 144.539 41.8943C145.169 43.4 145.169 51.2829 145.169 51.6371L145.079 52.7ZM84.1349 49.2457C83.9551 50.9286 83.9551 52.5229 83.9551 53.6743C83.9551 56.1543 83.9551 58.1029 83.0562 58.8114C82.8764 59.0771 82.5169 58.9886 82.1573 58.8114L81.4382 58.6343H81.0787C80.809 58.6343 80.5394 58.7229 80.3596 58.4571C79.7304 57.5714 79.3708 52.5229 79.5506 51.1057V49.8657L79.6405 48.98L79.7304 47.6514V45.4371H79.6405V44.02L79.4607 42.8686L79.3708 41.9829L79.4607 39.8571L79.5506 38.0857C79.7304 36.6686 79.7304 35.4286 79.7304 33.8343V32.24V31.2657C79.7304 30.0257 79.7304 28.9629 80.1798 28.1657C80.4495 27.7229 80.5394 27.5457 80.7191 27.5457H80.809C80.809 27.5457 80.9888 27.5457 80.9888 27.7229H81.8877C82.7866 27.7229 83.8652 27.5457 84.5843 27.9V31.8857C84.5843 32.3286 84.5843 32.7714 84.7641 33.5686L84.9439 34.9857V38.0857L85.1236 38.7057V38.9714C85.3933 39.5914 85.3933 39.9457 85.3933 41.0086L84.1349 49.0686V49.2457ZM87.0113 35.8714V31.7971C87.0113 31.1771 87.0113 30.9114 86.8315 30.8229V29.9371C87.0113 29.14 87.2809 27.7229 85.5731 26.3943C84.9439 25.6857 83.9551 25.5086 82.427 25.5086L80.8989 25.5971L80 25.6857C78.7416 25.8629 78.472 26.1286 77.9326 27.3686C77.663 27.5457 77.663 27.7229 77.663 27.9L77.5731 28.2543C77.3933 28.6971 77.3034 28.9629 77.3034 29.76V45.4371C77.3034 52.1686 77.3034 59.2543 78.7416 60.8486C79.1012 61.2914 80.1798 62.0886 80.9888 62.0886C82.2472 62.0886 83.9551 61.2029 84.5843 60.6714C86.2023 59.2543 86.2023 55.18 86.2023 52.1686V50.3086L86.8315 46.6771C87.0256 45.0177 87.2654 43.3638 87.5506 41.7171L87.6405 40.5657C87.9102 39.3257 87.6405 38.5286 87.4607 37.9086L87.2809 37.0229L87.0113 35.8714ZM131.775 55.18C132.225 56.8629 132.674 58.4571 132.674 59.4314C132.674 59.8743 132.494 60.3171 131.596 60.4943H130.966C130.787 60.4943 130.337 60.2286 130.337 60.0514L129.528 57.04C129.278 55.4078 128.978 53.7832 128.629 52.1686L128.09 49.6886L127.91 48.4486L127.641 47.2086V45.4371L126.292 45.1714L125.753 44.9943H124.584V48.1829L124.315 49.4229C124.237 50.396 124.177 51.3704 124.135 52.3457V56.5086C124.135 58.6343 123.955 59.6971 123.775 60.3171V61.0257C123.775 61.38 123.506 61.5571 123.056 61.5571H122.067C121.618 61.5571 121.438 61.38 121.438 61.0257C121.438 59.9629 121.438 59.7857 121.618 59.3429L122.067 51.8143C122.247 50.0429 122.247 48.98 122.247 47.12C122.247 46.3229 122.247 45.5257 122.427 44.7286C122.697 44.1086 122.876 41.4514 122.876 40.6543V39.7686C123.146 35.6057 123.326 30.4686 124.315 27.28C124.584 26.04 124.944 25.5971 125.753 25.5971C125.753 25.5971 126.382 25.7743 126.652 26.04C126.832 26.3943 127.011 26.8371 127.011 27.4571L127.101 27.8114L127.281 28.2543L127.73 30.2029C127.73 30.4686 127.73 30.8229 127.91 31.0886C127.91 31.5314 127.91 31.9743 128.09 32.3286C128.989 35.6057 129.348 37.6429 129.348 41.0971L129.438 41.8057L129.528 42.2486L130.157 48.0057L130.517 49.6C130.697 50.7514 130.966 52.2571 131.236 53.0543L131.775 55.0914V55.18ZM125.573 31.62C125.393 32.4171 125.393 33.3914 125.393 33.6571L125.124 42.5143L127.641 42.78V42.16L127.461 41.54V39.5029L127.191 37.1114L127.011 35.6943L126.023 30.5571C126.023 30.5571 125.573 30.8229 125.573 30.5571V31.62ZM158.562 53.4971V53.1429C158.202 52.2571 157.933 50.84 157.753 49.6886L157.483 48.0943L156.854 42.3371L156.764 41.8943L156.584 41.1857C156.602 38.1889 156.178 35.2055 155.326 32.3286C155.146 31.9743 155.146 31.62 155.146 31.1771L154.966 30.2914C154.966 29.6714 154.787 29.14 154.517 28.3429L154.427 27.9L154.337 27.5457C154.337 26.9257 154.157 26.4829 153.888 26.1286C153.708 25.8629 152.989 25.6857 152.989 25.6857C152.27 25.6857 151.82 26.1286 151.641 27.3686C150.652 30.5571 150.382 35.6943 150.202 39.8571V40.7429C150.202 41.6286 149.933 44.1971 149.753 44.8171C149.573 45.7029 149.573 46.4114 149.573 47.2086C149.573 49.0686 149.573 50.1314 149.303 51.9029L148.944 59.4314L148.764 59.7857V60.6714C148.764 61.1143 148.944 61.2914 149.303 61.2914H150.382C150.742 61.2914 151.011 61.1143 151.011 60.6714V60.0514C151.191 59.52 151.371 58.7229 151.371 56.5971V54.8257C151.396 53.0517 151.486 51.2791 151.641 49.5114L151.82 48.2714C152 47.3857 151.91 46.7657 151.82 46.2343V44.9943H153.079C153.079 44.9943 153.348 44.9943 153.528 45.1714L154.966 45.4371V47.2086L155.146 48.4486L155.326 49.6886L155.865 52.08V52.1686C156.225 53.94 156.764 55.9771 156.764 57.04L158.112 60.8486C158.112 61.1143 158.472 61.2914 158.652 61.2914H159.281C159.73 61.2914 160.18 61.1143 159.91 60.6714C159.91 59.3429 159.191 56.0657 158.562 53.5857V53.4971ZM152.629 33.6571C152.629 33.3914 152.629 32.4171 152.899 31.62V30.5571C152.899 30.8229 153.258 30.5571 153.258 30.5571L154.337 35.6943C154.577 36.9817 154.727 38.2838 154.787 39.5914V41.9829L154.966 42.6029L152.449 42.4257L152.629 33.48V33.6571ZM69.7529 44.02L69.9326 43.3114C70.3821 41.8943 71.1911 38.44 71.1911 33.3029C71.0113 32.9486 71.0113 32.5057 71.0113 32.3286C70.8315 31.8857 70.8315 31.4429 70.8315 30.9114C70.8315 27.3686 70.3821 27.3686 69.3933 27.3686H67.0562V32.3286C67.236 32.9486 67.236 33.7457 67.236 35.6057L67.3259 36.4914L67.5057 37.3771V41.4514C67.5057 42.3371 67.5057 44.2857 67.6854 44.9943L68.5843 44.8171L69.3933 44.7286H69.5731L69.7529 44.02ZM66.1573 25.42C71.4607 25.42 72.7191 27.0143 72.7191 29.8486V32.5943L72.8989 33.1257V34.0114C73.0787 34.3657 73.0787 34.72 73.0787 35.1629L72.9888 38.7057L72.8989 41.2743C72.8989 41.54 72.8989 41.7171 72.7191 41.9829V42.2486L72.4495 43.4886C72.2697 45.5257 70.6517 47.12 67.5057 47.3857V48.36L67.236 48.8029C67.0562 50.0429 66.8764 51.1943 67.5057 56.3314C67.5956 56.8629 67.5057 57.3057 67.5057 57.7486V59.52L67.5956 59.8743L67.5057 60.4057C67.236 60.76 67.0562 61.2029 66.427 61.2029H65.9776C65.7978 61.2029 65.618 61.0257 65.3484 60.76C64.9888 60.14 64.9888 59.1657 65.1686 57.3057V30.2914C65.1686 28.8743 65.1686 27.8114 65.618 25.8629C65.618 25.5971 65.9776 25.42 66.2472 25.42H66.1573Z" fill="#455966"/>
  </g>
  <defs>
    <clipPath id="clip0_6_4731">
      <rect width="160" height="62" fill="white"/>
    </clipPath>
  </defs>
</svg>