<svg xmlns="http://www.w3.org/2000/svg" width="122" height="36" viewBox="0 0 122 36" fill="none">
  <g clip-path="url(#clip0_110_4564)">
    <path d="M117.614 36H4.28428C1.93813 36 0 34.0678 0 31.7288V4.27119C0 1.9322 1.93813 0 4.28428 0H117.614C119.96 0 122 1.9322 122 4.27119V31.8305C122 34.1695 119.96 36 117.614 36Z" fill="#040301"/>
    <path d="M121.082 31.7289C121.082 33.6611 119.552 35.1865 117.614 35.1865H4.28427C2.34614 35.1865 0.81604 33.6611 0.81604 31.7289V4.27123C0.81604 2.33902 2.34614 0.813599 4.28427 0.813599H117.614C119.552 0.813599 121.082 2.33902 121.082 4.27123V31.7289Z" fill="#040301"/>
    <path d="M27.2362 17.7966C27.2362 14.8475 29.5823 13.4237 29.6843 13.4237C28.3582 11.3898 26.2161 11.1864 25.5021 11.1864C23.7679 10.9831 22.0338 12.2034 21.1158 12.2034C20.1977 12.2034 18.7696 11.1864 17.3415 11.1864C15.4034 11.1864 13.5673 12.3051 12.6492 14.0339C10.6091 17.5932 12.1392 22.7797 14.0773 25.6271C15.0974 27.0508 16.2195 28.5763 17.7496 28.5763C19.1776 28.4746 19.7897 27.661 21.5238 27.661C23.2579 27.661 23.7679 28.5763 25.298 28.5763C26.8281 28.5763 27.8482 27.1525 28.7663 25.7288C29.8883 24.1017 30.3984 22.5763 30.3984 22.4746C30.2964 22.4746 27.2362 21.2542 27.2362 17.7966Z" fill="white"/>
    <path d="M24.3796 9.25428C25.1957 8.23733 25.7057 6.9153 25.6037 5.59326C24.4816 5.69496 23.0535 6.40682 22.2375 7.32207C21.5234 8.13563 20.8094 9.55936 21.0134 10.8814C22.2375 10.9831 23.4616 10.2712 24.3796 9.25428Z" fill="white"/>
    <path d="M44.9846 23.3899L43.9645 20.2373C43.8625 19.9322 43.6585 19.1187 43.3525 18C43.2504 18.5085 43.0464 19.3221 42.7404 20.2373L41.7204 23.3899H44.9846ZM48.4528 28.3729H46.4127L45.2906 24.8136H41.4143L40.3943 28.3729H38.3541L42.2304 16.3729H44.5765L48.4528 28.3729Z" fill="white"/>
    <path d="M56.5113 24.0002C56.5113 23.1867 56.3072 22.4748 55.8992 21.9663C55.4912 21.3561 54.8792 21.1528 54.2671 21.1528C53.7571 21.1528 53.3491 21.3561 52.941 21.6612C52.533 21.9663 52.329 22.3731 52.227 22.8816C52.125 23.085 52.125 23.2883 52.125 23.4917V24.9155C52.125 25.5256 52.329 26.0341 52.737 26.5426C53.145 26.9494 53.6551 27.1528 54.2671 27.1528C54.9812 27.1528 55.5932 26.8477 56.0012 26.3392C56.3073 25.6273 56.5113 24.9155 56.5113 24.0002ZM58.4494 24.0002C58.4494 25.4239 58.0414 26.6443 57.2253 27.4578C56.5113 28.2714 55.5932 28.5765 54.5731 28.5765C53.4511 28.5765 52.635 28.1697 52.125 27.3561V31.9324H50.1868V22.5765C50.1868 21.6612 50.1868 20.746 50.0848 19.729H51.819L51.921 21.0511C52.533 20.0341 53.5531 19.5256 54.8792 19.5256C55.8992 19.5256 56.7153 19.9324 57.4293 20.746C58.0414 21.5595 58.4494 22.6782 58.4494 24.0002Z" fill="white"/>
    <path d="M66.4068 24.0002C66.4068 23.1867 66.2028 22.4748 65.7948 21.9663C65.3867 21.3561 64.7747 21.1528 64.1627 21.1528C63.6526 21.1528 63.2446 21.3561 62.8366 21.6612C62.4285 21.9663 62.2245 22.3731 62.1225 22.8816C62.0205 23.085 62.0205 23.2883 62.0205 23.4917V24.9155C62.0205 25.5256 62.2245 26.0341 62.6326 26.5426C63.0406 26.9494 63.5506 27.1528 64.1627 27.1528C64.8767 27.1528 65.4887 26.8477 65.8968 26.3392C66.2028 25.6273 66.4068 24.9155 66.4068 24.0002ZM68.4469 24.0002C68.4469 25.4239 68.0389 26.6443 67.2229 27.4578C66.5088 28.2714 65.5908 28.5765 64.5707 28.5765C63.4486 28.5765 62.6326 28.1697 62.1225 27.3561V31.9324H60.1844V22.5765C60.1844 21.6612 60.1844 20.746 60.0824 19.729H61.8165L61.9185 21.0511C62.5306 20.0341 63.5506 19.5256 64.8767 19.5256C65.8968 19.5256 66.7128 19.9324 67.4269 20.746C68.0389 21.5595 68.4469 22.6782 68.4469 24.0002Z" fill="white"/>
    <path d="M79.5653 25.017C79.5653 26.034 79.2592 26.8475 78.5452 27.5594C77.7291 28.2712 76.7091 28.5763 75.281 28.5763C73.9549 28.5763 72.9348 28.3729 72.1188 27.8645L72.5268 26.2373C73.3429 26.7458 74.2609 27.0509 75.281 27.0509C75.995 27.0509 76.6071 26.8475 77.0151 26.5424C77.4231 26.2373 77.6271 25.7289 77.6271 25.2204C77.6271 24.7119 77.4231 24.3051 77.1171 24.0001C76.8111 23.695 76.199 23.3899 75.485 23.0848C73.3429 22.2712 72.3228 21.1526 72.3228 19.6272C72.3228 18.6102 72.7308 17.7967 73.4449 17.1865C74.1589 16.5763 75.179 16.2712 76.4031 16.2712C77.5251 16.2712 78.4432 16.4746 79.1572 16.8814L78.6472 18.3051C77.9332 17.8984 77.2191 17.7967 76.3011 17.7967C75.587 17.7967 75.077 18.0001 74.6689 18.3051C74.3629 18.6102 74.1589 19.017 74.1589 19.4238C74.1589 19.9323 74.3629 20.2373 74.6689 20.5424C74.975 20.8475 75.587 21.1526 76.4031 21.4577C77.4231 21.8645 78.2392 22.3729 78.6472 22.8814C79.2592 23.4916 79.5653 24.2034 79.5653 25.017Z" fill="white"/>
    <path d="M85.8892 21.1527H83.7471V25.4239C83.7471 26.4409 84.1551 27.051 84.8692 27.051C85.1752 27.051 85.4812 27.051 85.6852 26.9493L85.7872 28.3731C85.3792 28.4747 84.8692 28.5764 84.2571 28.5764C83.5431 28.5764 82.931 28.3731 82.523 27.8646C82.115 27.3561 81.911 26.6442 81.911 25.5256V21.1527H80.6869V19.729H81.911V18.1019L83.8491 17.4917V19.6273H85.9912V21.1527H85.8892Z" fill="white"/>
    <path d="M93.5401 24.1017C93.5401 23.2881 93.3361 22.5762 93.0301 22.0678C92.6221 21.3559 92.01 21.0508 91.296 21.0508C90.4799 21.0508 89.9699 21.3559 89.5619 22.0678C89.2559 22.6779 89.0519 23.3898 89.0519 24.2033C89.0519 25.0169 89.2559 25.7288 89.5619 26.2372C89.9699 26.9491 90.5819 27.2542 91.296 27.2542C92.01 27.2542 92.6221 26.8474 93.0301 26.2372C93.3361 25.5254 93.5401 24.8135 93.5401 24.1017ZM95.4783 24C95.4783 25.322 95.0702 26.4406 94.3562 27.2542C93.5401 28.1694 92.5201 28.5762 91.194 28.5762C89.9699 28.5762 88.9498 28.1694 88.1338 27.3559C87.4197 26.5423 87.0117 25.4237 87.0117 24.2033C87.0117 22.8813 87.4197 21.7627 88.1338 20.9491C88.9498 20.1356 89.9699 19.6271 91.296 19.6271C92.5201 19.6271 93.6422 20.0339 94.3562 20.9491C95.1723 21.661 95.4783 22.6779 95.4783 24Z" fill="white"/>
    <path d="M101.803 21.4576C101.599 21.4576 101.395 21.4576 101.191 21.4576C100.477 21.4576 99.9665 21.661 99.6605 22.2711C99.3545 22.6779 99.1505 23.2881 99.1505 24V28.5762H97.2124V22.6779C97.2124 21.661 97.2124 20.7457 97.1104 19.9322H98.7425L98.8445 21.5593H98.9465C99.1505 20.9491 99.4565 20.5423 99.8645 20.1355C100.273 19.8305 100.783 19.6271 101.293 19.6271C101.497 19.6271 101.599 19.6271 101.803 19.6271V21.4576Z" fill="white"/>
    <path d="M108.535 23.1864C108.535 22.5762 108.433 22.0678 108.127 21.7627C107.821 21.2542 107.311 20.9491 106.597 20.9491C105.985 20.9491 105.475 21.1525 105.067 21.7627C104.761 22.1695 104.557 22.6779 104.455 23.2881H108.535V23.1864ZM110.371 23.6949C110.371 24 110.371 24.3051 110.269 24.5085H104.455C104.455 25.322 104.761 26.0339 105.271 26.4407C105.781 26.8474 106.393 27.0508 107.209 27.0508C108.025 27.0508 108.841 26.9491 109.555 26.644L109.861 27.9661C109.045 28.2712 108.025 28.4746 107.005 28.4746C105.679 28.4746 104.557 28.0678 103.843 27.2542C103.027 26.4407 102.721 25.4237 102.721 24.1017C102.721 22.7796 103.027 21.7627 103.843 20.8474C104.557 19.9322 105.577 19.4237 106.903 19.4237C108.127 19.4237 109.147 19.8305 109.759 20.8474C110.167 21.661 110.371 22.5762 110.371 23.6949Z" fill="white"/>
    <path d="M39.273 6.50846C39.477 6.40677 39.6811 6.30507 39.9871 6.20338C40.1911 6.20338 40.4971 6.10168 40.8031 6.10168C41.4152 6.10168 41.8232 6.20338 42.1292 6.50846C42.4352 6.81355 42.6392 7.11863 42.6392 7.62711C42.6392 8.03389 42.5372 8.33897 42.3332 8.54236C42.1292 8.74575 41.8232 8.94914 41.5172 9.05084C41.7212 9.05084 41.9252 9.15253 42.0272 9.25423C42.2312 9.35592 42.3332 9.45762 42.4352 9.55931C42.5372 9.66101 42.6392 9.8644 42.7413 9.96609C42.8433 10.0678 42.8433 10.2712 42.8433 10.4746C42.8433 10.7797 42.7413 11.0847 42.6392 11.2881C42.5372 11.4915 42.3332 11.6949 42.1292 11.7966C41.9252 11.8983 41.7212 12 41.4152 12.1017C41.2112 12.2034 40.9051 12.2034 40.7011 12.2034C40.3951 12.2034 40.1911 12.2034 39.8851 12.1017C39.579 12 39.375 11.8983 39.171 11.7966L39.375 11.0847C39.477 11.1864 39.6811 11.1864 39.9871 11.2881C40.1911 11.3898 40.4971 11.3898 40.7011 11.3898C41.1091 11.3898 41.4152 11.2881 41.6192 11.0847C41.8232 10.8813 41.9252 10.678 41.9252 10.3729C41.9252 10.1695 41.9252 9.96609 41.8232 9.8644C41.7212 9.7627 41.6192 9.66101 41.5172 9.55931C41.4152 9.45762 41.2112 9.45762 41.0071 9.45762C40.8031 9.45762 40.7011 9.35592 40.4971 9.35592H40.0891V8.74575H40.4971C40.7011 8.74575 40.8031 8.74575 41.0071 8.64406C41.2112 8.64406 41.3132 8.54236 41.4152 8.44067C41.5172 8.33897 41.6192 8.23728 41.7212 8.13558C41.8232 8.03389 41.8232 7.93219 41.8232 7.7288C41.8232 7.52541 41.7212 7.32202 41.5172 7.11863C41.3132 6.91524 41.1091 6.91524 40.8031 6.91524C40.5991 6.91524 40.3951 6.91524 40.1911 7.01694C39.7831 7.11863 39.579 7.11863 39.477 7.22033L39.273 6.50846Z" fill="white"/>
    <path d="M46.6171 9.96605C46.107 9.96605 45.699 10.0677 45.393 10.1694C45.087 10.2711 44.985 10.5762 44.985 10.7796C44.985 10.983 45.087 11.1864 45.189 11.2881C45.291 11.3898 45.495 11.4915 45.699 11.4915C45.801 11.4915 45.903 11.4915 46.005 11.3898C46.107 11.3898 46.209 11.2881 46.311 11.1864C46.413 11.0847 46.413 10.983 46.5151 10.8813C46.6171 10.7796 46.6171 10.6779 46.6171 10.5762V9.96605ZM46.7191 12.1016L46.6171 11.5932C46.311 11.9999 45.903 12.2033 45.393 12.2033C45.189 12.2033 44.985 12.2033 44.8829 12.1016C44.6789 11.9999 44.5769 11.9999 44.4749 11.7966C44.3729 11.6949 44.2709 11.5932 44.1689 11.3898C44.0669 11.1864 44.0669 11.0847 44.0669 10.8813C44.0669 10.3728 44.2709 9.96605 44.6789 9.66096C45.087 9.35588 45.699 9.25418 46.5151 9.25418C46.5151 8.64401 46.209 8.44062 45.597 8.44062C45.189 8.44062 44.7809 8.54232 44.4749 8.74571L44.3729 8.13554C44.7809 7.93215 45.291 7.72876 45.801 7.72876C46.9231 7.72876 47.4331 8.33893 47.4331 9.45757V10.983C47.4331 11.3898 47.4331 11.7966 47.5351 11.9999H46.7191V12.1016Z" fill="white"/>
    <path d="M52.1258 7.83069V8.64425H50.3916V12.1019H49.3716V7.83069H52.1258Z" fill="white"/>
    <path d="M56.6141 9.96617C56.6141 9.76278 56.6141 9.55939 56.5121 9.356C56.5121 9.15261 56.4101 9.05092 56.3081 8.94922C56.2061 8.84753 56.1041 8.74583 56.0021 8.64414C55.9001 8.54244 55.6961 8.54244 55.492 8.54244C55.39 8.54244 55.186 8.54244 55.084 8.64414C54.982 8.74583 54.88 8.74583 54.778 8.84753C54.676 8.94922 54.574 9.05092 54.574 9.25431C54.472 9.356 54.472 9.55939 54.472 9.66109V10.3729C54.472 10.5763 54.472 10.678 54.574 10.7797C54.574 10.8814 54.676 10.9831 54.778 11.0848C54.88 11.1865 54.982 11.2882 55.084 11.2882C55.186 11.3899 55.39 11.3899 55.492 11.3899C55.7981 11.3899 56.1041 11.2882 56.3081 10.9831C56.5121 10.7797 56.6141 10.3729 56.6141 9.96617ZM57.5322 9.96617C57.5322 10.2713 57.5322 10.5763 57.4302 10.8814C57.3282 11.1865 57.2262 11.3899 57.0221 11.5933C56.8181 11.7967 56.6141 11.8984 56.4101 12.0001C56.2061 12.1018 55.9001 12.2035 55.594 12.2035C55.084 12.2035 54.676 12.0001 54.37 11.5933V13.8306H53.4519V9.25431C53.4519 9.05092 53.4519 8.84753 53.4519 8.54244C53.4519 8.33905 53.4519 8.03397 53.4519 7.83058H54.268L54.37 8.54244C54.676 8.03397 55.186 7.72888 55.7981 7.72888C56.0021 7.72888 56.3081 7.72888 56.5121 7.83058C56.7161 7.93227 56.9201 8.13566 57.0221 8.23736C57.2262 8.44075 57.3282 8.64414 57.4302 8.94922C57.5322 9.356 57.5322 9.66109 57.5322 9.96617Z" fill="white"/>
    <path d="M62.6325 7.83069L61.5104 10.7798C61.2044 11.4917 61.0004 12.1019 60.7964 12.5087C60.5924 12.9154 60.2864 13.3222 60.0823 13.5256C59.7763 13.8307 59.3683 14.0341 59.0623 14.0341L58.8583 13.2205C59.0623 13.1188 59.3683 13.0171 59.5723 12.8137C59.7763 12.6104 59.9803 12.407 60.0823 12.1019C60.0823 12.0002 60.1844 12.0002 60.1844 11.8985C60.1844 11.8985 60.1844 11.7968 60.0823 11.6951L58.5522 7.83069H59.5723L60.3884 10.1697C60.3884 10.2714 60.4904 10.3731 60.4904 10.5765C60.4904 10.6781 60.5924 10.8815 60.5924 11.0849C60.5924 10.9832 60.6944 10.8815 60.6944 10.7798C60.6944 10.6781 60.7964 10.4748 60.7964 10.2714L61.5104 7.93238H62.6325V7.83069Z" fill="white"/>
    <path d="M64.2642 9.66096H64.6722C64.9783 9.66096 65.2843 9.55927 65.3863 9.45757C65.5903 9.35588 65.6923 9.15249 65.6923 9.05079C65.6923 8.8474 65.5903 8.74571 65.4883 8.64401C65.3863 8.54232 65.1823 8.44062 64.8762 8.44062C64.6722 8.44062 64.5702 8.44062 64.3662 8.54232C64.1622 8.64401 64.0602 8.64401 63.8562 8.74571L63.6522 8.13554C63.8562 8.03384 64.1622 7.93215 64.3662 7.83045C64.5702 7.83045 64.8762 7.72876 65.0803 7.72876C65.2843 7.72876 65.4883 7.72876 65.6923 7.83045C65.8963 7.83045 66.1003 7.93215 66.2023 8.03384C66.3043 8.13554 66.5084 8.23723 66.6104 8.33893C66.7124 8.54232 66.7124 8.64401 66.7124 8.8474C66.7124 8.9491 66.7124 9.05079 66.6104 9.15249C66.6104 9.25418 66.5084 9.35588 66.4063 9.45757C66.3043 9.55927 66.2023 9.55927 66.1003 9.66096C65.9983 9.76266 65.8963 9.76266 65.7943 9.76266C65.8963 9.76266 66.1003 9.86435 66.2023 9.86435C66.3043 9.96605 66.4063 9.96605 66.5084 10.0677C66.6104 10.1694 66.7124 10.2711 66.7124 10.3728C66.8144 10.4745 66.8144 10.6779 66.8144 10.7796C66.8144 10.983 66.7124 11.2881 66.6104 11.3898C66.5084 11.5932 66.3043 11.6949 66.1003 11.7966C65.8963 11.8983 65.6923 11.9999 65.4883 11.9999C65.2843 11.9999 65.0803 12.1016 64.7742 12.1016C64.4682 12.1016 64.2642 12.1016 63.9582 11.9999C63.6522 11.8983 63.4482 11.8983 63.2441 11.6949L63.4482 11.0847C63.5502 11.1864 63.7542 11.1864 63.9582 11.2881C64.1622 11.3898 64.3662 11.3898 64.5702 11.3898C64.8762 11.3898 65.1823 11.2881 65.2843 11.1864C65.4883 11.0847 65.5903 10.8813 65.5903 10.6779C65.5903 10.5762 65.5903 10.4745 65.4883 10.3728C65.3863 10.2711 65.3863 10.2711 65.2843 10.1694C65.1823 10.0677 65.0803 10.0677 64.8762 10.0677C64.7742 10.0677 64.5702 10.0677 64.4682 10.0677H64.2642V9.66096Z" fill="white"/>
    <path d="M69.3645 7.83057V9.35599C69.3645 9.66107 69.3645 9.96616 69.3645 10.2712C69.3645 10.5763 69.3645 10.8814 69.3645 11.0848C69.4666 10.8814 69.5686 10.678 69.6706 10.4746C69.7726 10.2712 69.8746 10.0679 69.9766 9.86446L70.9967 7.83057H72.2207V12.1018H71.3027V10.5763C71.3027 10.2712 71.3027 9.96616 71.3027 9.66108C71.3027 9.35599 71.3027 9.05091 71.3027 8.74582C71.2007 9.05091 71.0987 9.2543 70.9967 9.45769C70.8946 9.66108 70.7926 9.86446 70.6906 10.0679C70.4866 10.3729 70.2826 10.7797 70.1806 11.0848C69.9766 11.4916 69.7726 11.7967 69.5686 12.2034H68.3445V7.83057H69.3645Z" fill="white"/>
    <path d="M77.219 7.83057V8.64413H75.893V12.1018H74.9749V8.64413H73.6488V7.83057H77.219Z" fill="white"/>
    <path d="M81.0949 9.55928C81.0949 9.25419 80.9929 8.94911 80.8909 8.74572C80.6869 8.54233 80.4829 8.44063 80.1769 8.44063C79.8708 8.44063 79.6668 8.54233 79.4628 8.74572C79.2588 8.94911 79.1568 9.25419 79.1568 9.55928H81.0949ZM82.013 9.76267C82.013 9.86436 82.013 9.86436 82.013 9.96606C82.013 10.0678 82.013 10.0678 82.013 10.1694H79.1568C79.1568 10.5762 79.2588 10.8813 79.5648 11.0847C79.7688 11.2881 80.1769 11.3898 80.4829 11.3898C80.8909 11.3898 81.2989 11.2881 81.6049 11.1864L81.707 11.7966C81.2989 12 80.7889 12.1017 80.2789 12.1017C79.9728 12.1017 79.6668 12.1017 79.3608 12C79.0548 11.8983 78.8508 11.7966 78.6468 11.5932C78.4427 11.3898 78.3407 11.1864 78.2387 10.8813C78.1367 10.5762 78.1367 10.2711 78.1367 9.96606C78.1367 9.66097 78.1367 9.35589 78.2387 9.0508C78.3407 8.74572 78.4427 8.54233 78.6468 8.33894C78.8508 8.13555 79.0548 7.93216 79.2588 7.83046C79.4628 7.72877 79.7688 7.62708 80.0748 7.62708C80.3809 7.62708 80.5849 7.72877 80.7889 7.72877C81.1969 8.03385 81.4009 8.13555 81.6049 8.33894C81.809 8.54233 81.911 8.74572 81.911 8.94911C82.013 9.25419 82.013 9.45758 82.013 9.76267Z" fill="white"/>
    <path d="M86.8073 11.4917C86.9093 11.4917 87.0113 11.4917 87.1133 11.4917C87.2153 11.4917 87.3173 11.4917 87.4193 11.4917C87.5213 11.4917 87.7254 11.4917 87.8274 11.4917C87.9294 11.4917 88.1334 11.39 88.2354 11.39C88.3374 11.39 88.4394 11.2883 88.5414 11.1866C88.6434 11.0849 88.6434 10.9832 88.6434 10.8815C88.6434 10.6781 88.5414 10.4748 88.3374 10.3731C88.1334 10.2714 87.8274 10.2714 87.4193 10.2714H86.9093V11.4917H86.8073ZM86.8073 9.5595H87.3173C87.4193 9.5595 87.6234 9.5595 87.7254 9.5595C87.8274 9.5595 87.9294 9.45781 88.0314 9.45781C88.1334 9.45781 88.2354 9.35611 88.2354 9.25442C88.3374 9.15272 88.3374 9.05103 88.3374 8.94933C88.3374 8.74594 88.2354 8.64425 88.1334 8.54255C87.9294 8.44086 87.7254 8.44086 87.4193 8.44086C87.3173 8.44086 87.2153 8.44086 87.1133 8.44086C87.0113 8.44086 86.9093 8.44086 86.8073 8.44086V9.5595ZM85.8892 7.93238C86.0932 7.93238 86.2973 7.83069 86.5013 7.83069C86.8073 7.83069 87.0113 7.83069 87.3173 7.83069C87.5213 7.83069 87.7254 7.83069 87.9294 7.83069C88.1334 7.83069 88.3374 7.93238 88.5414 7.93238C88.7454 8.03408 88.8474 8.13577 89.0515 8.33916C89.1535 8.44086 89.2555 8.64425 89.2555 8.94933C89.2555 9.05103 89.2555 9.15272 89.1535 9.25442C89.1535 9.35611 89.0514 9.45781 88.9494 9.5595C88.8474 9.6612 88.7454 9.6612 88.6434 9.76289C88.5414 9.76289 88.4394 9.86459 88.3374 9.86459C88.6434 9.86459 88.9494 10.068 89.0515 10.1697C89.2555 10.3731 89.3575 10.5765 89.3575 10.8815C89.3575 11.1866 89.2555 11.39 89.1535 11.5934C88.9494 11.7968 88.7454 11.8985 88.5414 12.0002C88.3374 12.1019 88.0314 12.1019 87.8274 12.2036C87.5213 12.2036 87.3173 12.2036 87.1133 12.2036C86.9093 12.2036 86.6033 12.2036 86.3993 12.2036C86.1953 12.2036 85.9912 12.2036 85.7872 12.2036V7.93238H85.8892Z" fill="white"/>
  </g>
  <defs>
    <clipPath id="clip0_110_4564">
      <rect width="122" height="36" fill="white"/>
    </clipPath>
  </defs>
</svg>