<svg xmlns="http://www.w3.org/2000/svg" width="22" height="23" viewBox="0 0 22 23" fill="none">
  <path d="M3.22222 2.5C2.89807 2.5 2.58719 2.62877 2.35798 2.85798C2.12877 3.08719 2 3.39807 2 3.72222V19.2778C2 19.6019 2.12877 19.9128 2.35798 20.142C2.58719 20.3712 2.89807 20.5 3.22222 20.5H7.66667C8.21895 20.5 8.66667 20.9477 8.66667 21.5C8.66667 22.0523 8.21895 22.5 7.66667 22.5H3.22222C2.36764 22.5 1.54805 22.1605 0.943767 21.5562C0.339483 20.952 0 20.1324 0 19.2778V3.72222C0 2.86764 0.339483 2.04805 0.943767 1.44377C1.54805 0.839483 2.36764 0.5 3.22222 0.5H7.66667C8.21895 0.5 8.66667 0.947715 8.66667 1.5C8.66667 2.05228 8.21895 2.5 7.66667 2.5H3.22222Z" fill="white"/>
  <path d="M14.7374 5.23734C15.1279 4.84681 15.761 4.84681 16.1516 5.23734L21.7071 10.7929C21.8106 10.8964 21.8867 11.017 21.9353 11.1455C21.9694 11.2355 21.9909 11.3316 21.9977 11.4317C22.0008 11.4772 22.0008 11.5228 21.9977 11.5683C21.9909 11.6692 21.9691 11.7661 21.9345 11.8566C21.8859 11.9844 21.8101 12.1042 21.7071 12.2071L16.1516 17.7627C15.761 18.1532 15.1279 18.1532 14.7374 17.7627C14.3468 17.3721 14.3468 16.739 14.7374 16.3484L18.5858 12.5H9C8.44771 12.5 8 12.0523 8 11.5C8 10.9477 8.44771 10.5 9 10.5H18.5858L14.7374 6.65155C14.3468 6.26103 14.3468 5.62786 14.7374 5.23734Z" fill="white"/>
</svg>