<svg xmlns="http://www.w3.org/2000/svg" width="27" height="16" viewBox="0 0 27 16" fill="none">
  <path d="M10.419 7.92358C10.4181 6.72872 10.6946 5.54921 11.2275 4.47371C11.7605 3.39821 12.5361 2.45471 13.496 1.71413C12.3006 0.788751 10.8623 0.211237 9.34615 0.0478229C7.83001 -0.115591 6.29742 0.141713 4.92415 0.790224C3.55089 1.43873 2.39256 2.45219 1.58202 3.71435C0.771477 4.97651 0.341553 6.43627 0.341553 7.92619C0.341553 9.41612 0.771477 10.8759 1.58202 12.138C2.39256 13.4002 3.55089 14.4137 4.92415 15.0622C6.29742 15.7107 7.83001 15.968 9.34615 15.8046C10.8623 15.6412 12.3006 15.0636 13.496 14.1383C12.5354 13.3971 11.7593 12.4528 11.2263 11.3763C10.6934 10.2999 10.4173 9.11933 10.419 7.92358Z" fill="#E20C16"/>
  <path d="M10.4192 7.92381C10.4175 9.11956 10.6935 10.3001 11.2265 11.3766C11.7595 12.453 12.5355 13.3974 13.4962 14.1385C14.4567 13.3975 15.2329 12.4537 15.7666 11.3778C16.3002 10.3019 16.5775 9.12193 16.5775 7.92642C16.5775 6.73091 16.3002 5.55093 15.7666 4.47504C15.2329 3.39916 14.4567 2.45531 13.4962 1.71436C12.5363 2.45493 11.7606 3.39844 11.2277 4.47394C10.6947 5.54944 10.4183 6.72895 10.4192 7.92381Z" fill="#EA6008"/>
  <path d="M18.5174 0.00281006C16.6938 0.00365163 14.9241 0.606828 13.4958 1.71432C14.4564 2.45528 15.2326 3.39913 15.7662 4.47501C16.2999 5.5509 16.5771 6.73088 16.5771 7.92639C16.5771 9.1219 16.2999 10.3019 15.7662 11.3778C15.2326 12.4537 14.4564 13.3975 13.4958 14.1385C14.511 14.922 15.7033 15.457 16.9733 15.6986C18.2433 15.9403 19.5541 15.8816 20.7961 15.5274C22.0381 15.1733 23.1753 14.534 24.1128 13.6629C25.0503 12.7919 25.7608 11.7144 26.1849 10.5204C26.6091 9.32643 26.7346 8.05065 26.5509 6.79963C26.3673 5.54861 25.8799 4.35867 25.1294 3.32919C24.3789 2.29972 23.3871 1.4606 22.2368 0.881922C21.0866 0.303247 19.8112 0.00181788 18.5174 0.00281006Z" fill="#F59E00"/>
</svg>