<svg xmlns="http://www.w3.org/2000/svg" width="36" height="10" viewBox="0 0 36 10" fill="none">
  <g clip-path="url(#clip0_110_4620)">
    <path d="M9.70014 0C9.70014 0 8.29636 0 7.92201 1.30854C7.57809 2.51377 6.61182 5.84252 6.58608 5.93434H6.31702C6.31702 5.93434 5.33203 2.53673 4.98343 1.31084C4.60909 0 3.20296 0 3.20296 0H0V10H3.20296V4.06107H3.47202L5.34373 10H7.56873L9.44044 4.06566H9.70716V10H12.9125V0H9.70014Z" fill="#4DB45E"/>
    <path d="M21.4053 0C21.1035 0.0448715 20.8183 0.164559 20.5767 0.34774C20.3352 0.530921 20.1453 0.771539 20.0249 1.04683L17.7555 5.93893H17.4888V0H14.2834V10H17.3133C17.6205 9.95637 17.9115 9.83762 18.1597 9.65469C18.4079 9.47176 18.6052 9.23052 18.7334 8.95317L20.9584 4.06336H21.2252V10H24.4305V0H21.4053Z" fill="#4DB45E"/>
    <path d="M25.8528 4.54102V10.0002H29.0581V6.81145H32.5207C33.2392 6.81293 33.9404 6.59522 34.5273 6.18845C35.1141 5.78168 35.5576 5.20597 35.7962 4.54102H25.8528Z" fill="#4DB45E"/>
    <path d="M32.521 1.24375e-05H25.4038C25.5805 0.929742 26.0209 1.79172 26.6744 2.48693C27.3278 3.18214 28.1679 3.68239 29.0981 3.93022C29.5353 4.04567 29.986 4.10432 30.4387 4.10469H35.9298C35.9763 3.87796 35.9998 3.64727 36 3.41599C36.0016 2.96717 35.9126 2.52247 35.7384 2.10749C35.5641 1.69251 35.308 1.31544 34.9846 0.997964C34.6613 0.680489 34.2772 0.42888 33.8544 0.257612C33.4315 0.0863449 32.9784 -0.00120071 32.521 1.24375e-05Z" fill="url(#paint0_linear_110_4620)"/>
  </g>
  <defs>
    <linearGradient id="paint0_linear_110_4620" x1="25.4038" y1="2.05235" x2="36" y2="2.05235" gradientUnits="userSpaceOnUse">
      <stop offset="0.3" stop-color="#00B4E6"/>
      <stop offset="1" stop-color="#088CCB"/>
    </linearGradient>
    <clipPath id="clip0_110_4620">
      <rect width="36" height="10" fill="white"/>
    </clipPath>
  </defs>
</svg>