<svg xmlns="http://www.w3.org/2000/svg" width="122" height="36" viewBox="0 0 122 36" fill="none">
  <g clip-path="url(#clip0_110_4587)">
    <path d="M117.512 36H4.48829C2.04013 36 0 33.9661 0 31.5254V4.47458C0 2.0339 2.04013 0 4.48829 0H117.41C119.858 0 121.898 2.0339 121.898 4.47458V31.5254C122 33.9661 119.96 36 117.512 36Z" fill="#040301"/>
    <path d="M96.6004 27.0509H98.3345V15.7627H96.6004V27.0509ZM111.799 19.8305L109.861 24.7119H109.759L107.719 19.8305H105.883L108.841 26.6441L107.107 30.4068H108.841L113.431 19.8305H111.799ZM102.211 25.7288C101.701 25.7288 100.885 25.4238 100.885 24.8136C100.885 23.8983 101.803 23.5933 102.721 23.5933C103.435 23.5933 103.843 23.7966 104.251 24C104.149 25.017 103.231 25.7288 102.211 25.7288ZM102.415 19.5255C101.191 19.5255 99.9666 20.0339 99.4565 21.2543L100.987 21.8644C101.293 21.2543 101.905 21.0509 102.517 21.0509C103.435 21.0509 104.251 21.5594 104.251 22.4746V22.5763C103.945 22.3729 103.333 22.1695 102.517 22.1695C100.885 22.1695 99.2525 23.0848 99.2525 24.7119C99.2525 26.2373 100.579 27.1526 102.007 27.1526C103.129 27.1526 103.741 26.6441 104.149 26.0339H104.251V26.9492H105.883V22.678C105.883 20.6441 104.353 19.5255 102.415 19.5255ZM92.0101 21.1526H89.5619V17.2882H92.0101C93.2341 17.2882 93.9482 18.3051 93.9482 19.2204C94.0502 20.1356 93.3361 21.1526 92.0101 21.1526ZM92.0101 15.7627H87.9298V27.0509H89.6639V22.7797H92.0101C93.8462 22.7797 95.6823 21.4577 95.6823 19.3221C95.6823 17.0848 93.8462 15.7627 92.0101 15.7627ZM69.9766 25.7288C68.8545 25.7288 67.8345 24.7119 67.8345 23.3899C67.8345 22.0678 68.8545 21.0509 69.9766 21.0509C71.0987 21.0509 72.0167 22.0678 72.0167 23.3899C72.0167 24.8136 71.0987 25.7288 69.9766 25.7288ZM71.9147 20.4407C71.5067 20.0339 70.7927 19.6272 69.8746 19.6272C67.9365 19.6272 66.2024 21.356 66.2024 23.4916C66.2024 25.6272 67.9365 27.356 69.8746 27.356C70.7927 27.356 71.5067 26.9492 71.9147 26.4407H72.0167V26.9492C72.0167 28.3729 71.2007 29.1865 69.9766 29.1865C68.9565 29.1865 68.3445 28.4746 68.0385 27.8644L66.4064 28.4746C66.8144 29.4916 67.9365 30.7119 69.7726 30.7119C71.7107 30.7119 73.4448 29.5933 73.4448 26.7458V19.8305H71.8127V20.4407H71.9147ZM74.6689 27.0509H76.403V15.7627H74.6689V27.0509ZM78.8512 23.2882C78.8512 21.7627 79.9733 21.0509 80.8913 21.0509C81.6054 21.0509 82.1154 21.356 82.3194 21.8644L78.8512 23.2882ZM84.0535 22.0678C83.7475 21.2543 82.7274 19.6272 80.7893 19.6272C78.8512 19.6272 77.1171 21.1526 77.1171 23.4916C77.1171 25.6272 78.7492 27.356 80.8913 27.356C82.6254 27.356 83.6455 26.2373 84.0535 25.6272L82.7274 24.7119C82.3194 25.3221 81.7074 25.7288 80.7893 25.7288C79.9733 25.7288 79.3612 25.3221 78.9532 24.6102L84.0535 22.4746V22.0678ZM43.1488 20.7458V22.3729H47.0251C46.9231 23.2882 46.6171 24 46.107 24.4068C45.495 25.017 44.6789 25.6272 43.0468 25.6272C40.5987 25.6272 38.7626 23.6949 38.7626 21.2543C38.7626 18.8136 40.5987 16.8814 43.0468 16.8814C44.3729 16.8814 45.291 17.3899 46.005 18L47.1271 16.8814C46.107 15.9661 44.883 15.2543 43.0468 15.2543C39.7826 15.2543 37.0284 17.8983 37.0284 21.2543C37.0284 24.5085 39.7826 27.2543 43.0468 27.2543C44.781 27.2543 46.209 26.6441 47.2291 25.6272C48.3512 24.5085 48.6572 23.0848 48.6572 21.8644C48.6572 21.4577 48.6572 21.1526 48.5552 20.8475H43.1488V20.7458ZM53.1455 25.7288C52.0234 25.7288 51.0034 24.8136 51.0034 23.3899C51.0034 21.9661 52.0234 21.0509 53.1455 21.0509C54.2676 21.0509 55.2876 21.9661 55.2876 23.3899C55.2876 24.8136 54.2676 25.7288 53.1455 25.7288ZM53.1455 19.6272C51.0034 19.6272 49.2692 21.2543 49.2692 23.4916C49.2692 25.7288 51.0034 27.356 53.1455 27.356C55.2876 27.356 57.0218 25.7288 57.0218 23.4916C57.0218 21.2543 55.2876 19.6272 53.1455 19.6272ZM61.6121 25.7288C60.49 25.7288 59.4699 24.8136 59.4699 23.3899C59.4699 21.9661 60.49 21.0509 61.6121 21.0509C62.7341 21.0509 63.7542 21.9661 63.7542 23.3899C63.7542 24.8136 62.7341 25.7288 61.6121 25.7288ZM61.6121 19.6272C59.4699 19.6272 57.7358 21.2543 57.7358 23.4916C57.7358 25.7288 59.4699 27.356 61.6121 27.356C63.7542 27.356 65.4883 25.7288 65.4883 23.4916C65.3863 21.2543 63.6522 19.6272 61.6121 19.6272Z" fill="white"/>
    <path d="M9.38459 6.8136C9.18058 7.11868 8.97656 7.52546 8.97656 8.03394V27.9661C8.97656 28.4746 9.18058 28.9831 9.38459 29.1865L9.4866 29.2882L20.7073 18.1017V18V17.8983L9.38459 6.8136Z" fill="#5AC7F7"/>
    <path d="M24.3796 21.8644L20.6053 18.1017V18V17.8983L24.3796 14.1356H24.4816L28.8679 16.678C30.092 17.3899 30.092 18.6102 28.8679 19.3221L24.3796 21.8644Z" fill="#F8D252"/>
    <path d="M24.4816 21.8644L20.7073 18.1017L9.48657 29.2881C9.8946 29.6949 10.6086 29.7966 11.3227 29.3898L24.4816 21.8644Z" fill="#E74A4F"/>
    <path d="M24.4816 14.2373L11.3227 6.71189C10.5066 6.30511 9.8946 6.30511 9.48657 6.81359L20.7073 18L24.4816 14.2373Z" fill="#72E987"/>
    <path d="M39.2722 8.94937C39.2722 9.76293 39.0682 10.4748 38.7622 10.9833H41.5164V6.91547H39.2722V8.94937ZM38.0482 12.8138H37.3341V10.9833H37.8441C38.3542 10.5765 38.5582 9.86462 38.5582 8.94937V6.3053H42.1284V11.085H42.8425V12.9155H42.1284V11.7968H38.0482V12.8138Z" fill="white"/>
    <path d="M39.2722 8.94937C39.2722 9.76293 39.0682 10.4748 38.7622 10.9833H41.5164V6.91547H39.2722V8.94937ZM38.0482 12.8138H37.3341V10.9833H37.8441C38.3542 10.5765 38.5582 9.86462 38.5582 8.94937V6.3053H42.1284V11.085H42.8425V12.9155H42.1284V11.7968H38.0482V12.8138Z" stroke="white" stroke-width="0.1772" stroke-miterlimit="10"/>
    <path d="M44.781 10.5763C45.189 10.983 45.699 11.1864 46.2091 11.1864C46.8211 11.1864 47.3311 10.983 47.6372 10.5763C48.0452 10.1695 48.2492 9.66101 48.2492 9.05084C48.2492 8.44067 48.0452 7.93219 47.6372 7.52541C47.2291 7.11863 46.7191 6.91524 46.2091 6.91524C45.597 6.91524 45.087 7.11863 44.781 7.52541C44.3729 7.93219 44.1689 8.44067 44.1689 9.05084C44.1689 9.66101 44.3729 10.1695 44.781 10.5763ZM48.2492 10.983C47.7392 11.4915 47.0251 11.7966 46.3111 11.7966C45.495 11.7966 44.883 11.4915 44.3729 10.983C43.8629 10.4746 43.5569 9.7627 43.5569 8.94914C43.5569 8.13558 43.8629 7.52541 44.3729 6.91524C44.883 6.40677 45.597 6.10168 46.3111 6.10168C47.1271 6.10168 47.7392 6.40677 48.2492 6.91524C48.7592 7.42372 49.0652 8.13558 49.0652 8.94914C49.0652 9.7627 48.7592 10.4746 48.2492 10.983Z" fill="white"/>
    <path d="M44.781 10.5763C45.189 10.983 45.699 11.1864 46.2091 11.1864C46.8211 11.1864 47.3311 10.983 47.6372 10.5763C48.0452 10.1695 48.2492 9.66101 48.2492 9.05084C48.2492 8.44067 48.0452 7.93219 47.6372 7.52541C47.2291 7.11863 46.7191 6.91524 46.2091 6.91524C45.597 6.91524 45.087 7.11863 44.781 7.52541C44.3729 7.93219 44.1689 8.44067 44.1689 9.05084C44.1689 9.66101 44.3729 10.1695 44.781 10.5763ZM48.2492 10.983C47.7392 11.4915 47.0251 11.7966 46.3111 11.7966C45.495 11.7966 44.883 11.4915 44.3729 10.983C43.8629 10.4746 43.5569 9.7627 43.5569 8.94914C43.5569 8.13558 43.8629 7.52541 44.3729 6.91524C44.883 6.40677 45.597 6.10168 46.3111 6.10168C47.1271 6.10168 47.7392 6.40677 48.2492 6.91524C48.7592 7.42372 49.0652 8.13558 49.0652 8.94914C49.0652 9.7627 48.7592 10.4746 48.2492 10.983Z" stroke="white" stroke-width="0.1772" stroke-miterlimit="10"/>
    <path d="M52.5334 11.7966C51.7174 11.7966 51.1053 11.4915 50.4933 10.983C49.9833 10.4746 49.6772 9.7627 49.6772 8.94914C49.6772 8.13558 49.9833 7.42372 50.4933 6.91524C51.0033 6.40677 51.7174 6.10168 52.5334 6.10168C53.3495 6.10168 54.0635 6.40677 54.5736 7.01694L54.0635 7.52541C53.6555 7.01694 53.1455 6.81355 52.5334 6.81355C51.9214 6.81355 51.4114 7.01694 51.0033 7.42372C50.5953 7.8305 50.3913 8.33897 50.3913 8.94914C50.3913 9.55931 50.5953 10.0678 51.0033 10.4746C51.4114 10.8813 51.9214 11.0847 52.5334 11.0847C53.1455 11.0847 53.7575 10.7797 54.1655 10.2712L54.6756 10.7797C54.4716 11.0847 54.1655 11.2881 53.7575 11.4915C53.4515 11.6949 53.0435 11.7966 52.5334 11.7966Z" fill="white"/>
    <path d="M52.5334 11.7966C51.7174 11.7966 51.1053 11.4915 50.4933 10.983C49.9833 10.4746 49.6772 9.7627 49.6772 8.94914C49.6772 8.13558 49.9833 7.42372 50.4933 6.91524C51.0033 6.40677 51.7174 6.10168 52.5334 6.10168C53.3495 6.10168 54.0635 6.40677 54.5736 7.01694L54.0635 7.52541C53.6555 7.01694 53.1455 6.81355 52.5334 6.81355C51.9214 6.81355 51.4114 7.01694 51.0033 7.42372C50.5953 7.8305 50.3913 8.33897 50.3913 8.94914C50.3913 9.55931 50.5953 10.0678 51.0033 10.4746C51.4114 10.8813 51.9214 11.0847 52.5334 11.0847C53.1455 11.0847 53.7575 10.7797 54.1655 10.2712L54.6756 10.7797C54.4716 11.0847 54.1655 11.2881 53.7575 11.4915C53.4515 11.6949 53.0435 11.7966 52.5334 11.7966Z" stroke="white" stroke-width="0.1772" stroke-miterlimit="10"/>
    <path d="M57.531 11.6951H56.817V7.01716H55.2869V6.3053H59.0611V7.01716H57.531V11.6951Z" fill="white"/>
    <path d="M57.531 11.6951H56.817V7.01716H55.2869V6.3053H59.0611V7.01716H57.531V11.6951Z" stroke="white" stroke-width="0.1772" stroke-miterlimit="10"/>
    <path d="M63.8562 6.3053L61.8161 10.8816C61.5101 11.4917 61.102 11.7968 60.592 11.7968C60.388 11.7968 60.286 11.7968 60.082 11.6951L60.286 11.085C60.388 11.1867 60.49 11.1867 60.694 11.1867C60.898 11.1867 61 11.1867 61.102 11.085C61.2041 10.9833 61.3061 10.8816 61.3061 10.7799L61.5101 10.3731L59.674 6.40699H60.49L61.8161 9.55953L63.1422 6.40699H63.8562V6.3053Z" fill="white"/>
    <path d="M63.8562 6.3053L61.8161 10.8816C61.5101 11.4917 61.102 11.7968 60.592 11.7968C60.388 11.7968 60.286 11.7968 60.082 11.6951L60.286 11.085C60.388 11.1867 60.49 11.1867 60.694 11.1867C60.898 11.1867 61 11.1867 61.102 11.085C61.2041 10.9833 61.3061 10.8816 61.3061 10.7799L61.5101 10.3731L59.674 6.40699H60.49L61.8161 9.55953L63.1422 6.40699H63.8562V6.3053Z" stroke="white" stroke-width="0.1772" stroke-miterlimit="10"/>
    <path d="M64.6726 11.6951V6.3053H68.5489V11.6951H67.8348V7.01716H65.2846V11.6951H64.6726Z" fill="white"/>
    <path d="M64.6726 11.6951V6.3053H68.5489V11.6951H67.8348V7.01716H65.2846V11.6951H64.6726Z" stroke="white" stroke-width="0.1772" stroke-miterlimit="10"/>
    <path d="M69.7729 11.6951V6.3053H70.487V8.64428H73.2412V6.3053H73.8532V11.6951H73.2412V9.25445H70.487V11.6951H69.7729Z" fill="white"/>
    <path d="M69.7729 11.6951V6.3053H70.487V8.64428H73.2412V6.3053H73.8532V11.6951H73.2412V9.25445H70.487V11.6951H69.7729Z" stroke="white" stroke-width="0.1772" stroke-miterlimit="10"/>
    <path d="M76.0974 10.5763C76.5054 10.983 77.0154 11.1864 77.5255 11.1864C78.0355 11.1864 78.6475 10.983 78.9536 10.5763C79.3616 10.1695 79.5656 9.66101 79.5656 9.05084C79.5656 8.44067 79.3616 7.93219 78.9536 7.52541C78.5455 7.11863 78.0355 6.91524 77.5255 6.91524C77.0154 6.91524 76.5054 7.01694 76.0974 7.42372C75.6893 7.8305 75.4853 8.33897 75.4853 9.05084C75.4853 9.66101 75.6893 10.1695 76.0974 10.5763ZM79.5656 10.983C79.0556 11.4915 78.3415 11.7966 77.6275 11.7966C76.8114 11.7966 76.1994 11.4915 75.6893 10.983C75.1793 10.4746 74.8733 9.7627 74.8733 8.94914C74.8733 8.13558 75.1793 7.52541 75.6893 6.91524C76.1994 6.40677 76.9134 6.10168 77.6275 6.10168C78.4435 6.10168 79.0556 6.40677 79.5656 6.91524C80.0756 7.42372 80.3817 8.13558 80.3817 8.94914C80.3817 9.7627 80.0756 10.4746 79.5656 10.983Z" fill="white"/>
    <path d="M76.0974 10.5763C76.5054 10.983 77.0154 11.1864 77.5255 11.1864C78.0355 11.1864 78.6475 10.983 78.9536 10.5763C79.3616 10.1695 79.5656 9.66101 79.5656 9.05084C79.5656 8.44067 79.3616 7.93219 78.9536 7.52541C78.5455 7.11863 78.0355 6.91524 77.5255 6.91524C77.0154 6.91524 76.5054 7.01694 76.0974 7.42372C75.6893 7.8305 75.4853 8.33897 75.4853 9.05084C75.4853 9.66101 75.6893 10.1695 76.0974 10.5763ZM79.5656 10.983C79.0556 11.4915 78.3415 11.7966 77.6275 11.7966C76.8114 11.7966 76.1994 11.4915 75.6893 10.983C75.1793 10.4746 74.8733 9.7627 74.8733 8.94914C74.8733 8.13558 75.1793 7.52541 75.6893 6.91524C76.1994 6.40677 76.9134 6.10168 77.6275 6.10168C78.4435 6.10168 79.0556 6.40677 79.5656 6.91524C80.0756 7.42372 80.3817 8.13558 80.3817 8.94914C80.3817 9.7627 80.0756 10.4746 79.5656 10.983Z" stroke="white" stroke-width="0.1772" stroke-miterlimit="10"/>
    <path d="M83.9511 11.085H85.3792C85.6852 11.085 85.8892 10.9833 85.9912 10.7799C86.1953 10.5765 86.1953 10.3731 86.1953 10.1697C86.1953 9.96632 86.0932 9.76292 85.8892 9.55954C85.6852 9.35615 85.4812 9.25445 85.1752 9.25445H83.8491V11.085H83.9511ZM83.9511 8.64428H85.1752C85.4812 8.64428 85.6852 8.54259 85.7872 8.3392C85.9912 8.13581 85.9912 7.93242 85.9912 7.72903C85.9912 7.52564 85.8892 7.32225 85.7872 7.11886C85.5832 6.91547 85.4812 6.81377 85.1752 6.81377H83.8491V8.64428H83.9511ZM83.2371 11.6951V6.3053H85.1752C85.5832 6.3053 85.9912 6.40699 86.2973 6.71208C86.6033 7.01716 86.8073 7.32225 86.8073 7.72903C86.8073 8.03411 86.7053 8.2375 86.6033 8.44089C86.5013 8.64428 86.2973 8.74598 86.0933 8.84767C86.2973 9.05106 86.5013 9.15276 86.7053 9.35615C86.9093 9.55954 87.0113 9.86462 87.0113 10.1697C87.0113 10.5765 86.8073 10.9833 86.5013 11.2883C86.1953 11.5934 85.7872 11.6951 85.3792 11.6951H83.2371Z" fill="white"/>
    <path d="M83.9511 11.085H85.3792C85.6852 11.085 85.8892 10.9833 85.9912 10.7799C86.1953 10.5765 86.1953 10.3731 86.1953 10.1697C86.1953 9.96632 86.0932 9.76292 85.8892 9.55954C85.6852 9.35615 85.4812 9.25445 85.1752 9.25445H83.8491V11.085H83.9511ZM83.9511 8.64428H85.1752C85.4812 8.64428 85.6852 8.54259 85.7872 8.3392C85.9912 8.13581 85.9912 7.93242 85.9912 7.72903C85.9912 7.52564 85.8892 7.32225 85.7872 7.11886C85.5832 6.91547 85.4812 6.81377 85.1752 6.81377H83.8491V8.64428H83.9511ZM83.2371 11.6951V6.3053H85.1752C85.5832 6.3053 85.9912 6.40699 86.2973 6.71208C86.6033 7.01716 86.8073 7.32225 86.8073 7.72903C86.8073 8.03411 86.7053 8.2375 86.6033 8.44089C86.5013 8.64428 86.2973 8.74598 86.0933 8.84767C86.2973 9.05106 86.5013 9.15276 86.7053 9.35615C86.9093 9.55954 87.0113 9.86462 87.0113 10.1697C87.0113 10.5765 86.8073 10.9833 86.5013 11.2883C86.1953 11.5934 85.7872 11.6951 85.3792 11.6951H83.2371Z" stroke="white" stroke-width="0.1772" stroke-miterlimit="10"/>
  </g>
  <defs>
    <clipPath id="clip0_110_4587">
      <rect width="122" height="36" fill="white"/>
    </clipPath>
  </defs>
</svg>