<svg xmlns="http://www.w3.org/2000/svg" width="35" height="11" viewBox="0 0 35 11" fill="none">
  <g clip-path="url(#clip0_110_4635)">
    <path d="M12.3999 10.6403L14.1849 0.180298H17.0349L15.2499 10.6403H12.3999Z" fill="#1A1F71"/>
    <path d="M25.5851 0.440247C24.7665 0.142099 23.9012 -0.00692391 23.0301 0.000247C20.2151 0.000247 18.2301 1.42025 18.2151 3.45025C18.2151 4.95025 19.6301 5.79025 20.7151 6.29025C21.8001 6.79025 22.2151 7.13025 22.2151 7.59025C22.2151 8.29025 21.3301 8.59025 20.5101 8.59025C19.5846 8.61652 18.6656 8.42828 17.8251 8.04025L17.4601 7.87525L17.0601 10.2152C18.0766 10.5895 19.1518 10.7791 20.2351 10.7752C23.2351 10.7752 25.1751 9.37025 25.1951 7.20025C25.1951 6.01025 24.4501 5.10525 22.8051 4.36025C21.8051 3.86025 21.2001 3.55525 21.2051 3.06525C21.2101 2.57525 21.7051 2.16525 22.8351 2.16525C23.5668 2.14902 24.2938 2.28525 24.9701 2.56525L25.2251 2.68525L25.5851 0.440247Z" fill="#1A1F71"/>
    <path d="M29.3802 6.93046L30.5002 4.00046C30.5002 4.02546 30.7352 3.39546 30.8802 3.00046L31.0702 3.90046C31.0702 3.90046 31.6152 6.40046 31.7302 6.90046L29.3802 6.93046ZM32.8802 0.190462H30.6802C30.3693 0.150288 30.0538 0.213759 29.7827 0.371043C29.5115 0.528328 29.2997 0.770646 29.1802 1.06046L24.9702 10.6405H27.9702L28.5702 9.07046H32.2202C32.3052 9.43546 32.5652 10.6355 32.5652 10.6355H35.2002L32.8952 0.190462H32.8802Z" fill="#1A1F71"/>
    <path d="M10 0.190308L7.22 7.32031L6.925 5.87031C6.405 4.20031 4.785 2.39031 3 1.50031L5.55 10.6453H8.55L13.05 0.210308H10" fill="#1A1F71"/>
    <path d="M4.63 0.185239H0.035L0 0.400239C3.575 1.26524 5.94 3.35524 6.925 5.87024L5.925 1.06524C5.85117 0.787275 5.67957 0.545261 5.44169 0.383615C5.20382 0.221968 4.91562 0.151534 4.63 0.185239Z" fill="#1A1F71"/>
  </g>
  <defs>
    <clipPath id="clip0_110_4635">
      <rect width="35" height="11" fill="white"/>
    </clipPath>
  </defs>
</svg>