<svg xmlns="http://www.w3.org/2000/svg" width="29" height="15" viewBox="0 0 29 15" fill="none">
  <g clip-path="url(#clip0_110_4671)">
    <path d="M11.4497 14.0838H13.2406L14.3617 7.4093H12.568L11.4497 14.0838Z" fill="#1A1F71"/>
    <path d="M17.972 10.0864C17.3448 9.77801 16.9616 9.57052 16.9673 9.25927C16.973 8.94803 17.2908 8.68289 17.9919 8.68289C18.4519 8.67072 18.9094 8.75713 19.3343 8.9365L19.4933 9.01431L19.7374 7.57336C19.223 7.38138 18.679 7.2838 18.1309 7.28517C16.3599 7.29382 15.1139 8.19873 15.0997 9.51C15.0997 10.4697 15.9909 11.0028 16.6693 11.3227C17.3476 11.6426 17.603 11.8587 17.5974 12.1498C17.5974 12.5965 17.0297 12.8011 16.5274 12.8011C15.9464 12.8185 15.3694 12.6992 14.8415 12.4524L14.6116 12.3458L14.3618 13.8328C14.9976 14.0721 15.6706 14.1932 16.3486 14.1902C18.2303 14.1902 19.4536 13.2939 19.4706 11.9106C19.4819 11.1411 19.0051 10.5648 17.972 10.0864Z" fill="#1A1F71"/>
    <path d="M24.3295 7.41507H22.9444C22.7501 7.38997 22.5531 7.43057 22.3838 7.53059C22.2145 7.63061 22.0824 7.78447 22.0078 7.9684L19.3569 14.0838H21.2358L21.6133 13.0809H23.8981C23.952 13.3143 24.1166 14.0809 24.1166 14.0809H25.7798L24.3295 7.41507ZM22.1213 11.7177L22.8337 9.85028C22.8337 9.87045 22.9813 9.4641 23.0721 9.21338L23.1942 9.78976C23.1942 9.78976 23.5348 11.3834 23.6086 11.7177H22.1213Z" fill="#1A1F71"/>
    <path d="M9.94806 7.41512L8.19405 11.9656L8.00389 11.0405L7.37664 7.97421C7.26879 7.55057 6.95375 7.42376 6.56492 7.39783H3.67847L3.65576 7.53904C4.31295 7.69473 4.94607 7.94102 5.53749 8.27104L7.12972 14.0665H9.0228L11.844 7.40647L9.94806 7.41512Z" fill="#1A1F71"/>
    <path d="M0.692886 0.0374756L1.94453 3.88481L3.21037 0.0374756H3.81491L2.26241 4.45542H1.60395L0.0571289 0.0374756H0.692886Z" fill="#192062"/>
    <path d="M5.16602 4.55911C4.23793 4.55911 3.68164 3.9395 3.68164 2.89626C3.68164 1.85301 4.28618 1.15271 5.16602 1.15271C6.2048 1.15271 6.58512 1.98846 6.58512 2.91355V2.98848H4.21806V3.02594C4.21806 3.70895 4.58987 4.11818 5.20008 4.11818C5.65419 4.11818 5.90395 3.91933 6.05154 3.43517H6.55674C6.5134 3.76892 6.34422 4.07257 6.08483 4.28221C5.82543 4.49184 5.49605 4.59111 5.16602 4.55911ZM5.14615 1.59364C4.64095 1.59364 4.29469 1.9654 4.21806 2.56772H6.05154C6.01748 1.95964 5.66554 1.59364 5.14615 1.59364Z" fill="#192062"/>
    <path d="M8.78184 1.72917C8.73747 1.72488 8.69281 1.72488 8.64844 1.72917C7.79698 1.72917 7.63804 2.39488 7.63804 3.11536V4.46697H7.11865V1.25365H7.61534V1.94243C7.69919 1.70204 7.85919 1.49668 8.07027 1.35849C8.28135 1.2203 8.5316 1.15707 8.78184 1.17872V1.72917Z" fill="#192062"/>
    <path d="M9.72136 0.683021H9.19629V0.0374756H9.72136V0.683021ZM9.72136 4.45542H9.19629V1.25364H9.72136V4.45542Z" fill="#192062"/>
    <path d="M11.9522 0.484175C11.8584 0.468112 11.7635 0.45944 11.6684 0.458238C11.3392 0.458238 11.2711 0.533167 11.2711 0.887641V1.25364H11.8756V1.68881H11.2682V4.45543H10.7431V1.68881H10.2124V1.25364H10.7431V0.824239C10.7431 0.230568 11.061 1.64099e-05 11.6173 1.64099e-05C11.7295 -0.00043028 11.8414 0.00824314 11.9522 0.0259535V0.484175Z" fill="#192062"/>
    <path d="M12.8859 0.683021H12.3608V0.0374756H12.8859V0.683021ZM12.8859 4.45542H12.3608V1.25364H12.8859V4.45542Z" fill="#192062"/>
    <path d="M15.0146 4.55911C14.0836 4.55911 13.5273 3.9395 13.5273 2.89625C13.5273 1.85301 14.1205 1.16711 14.9947 1.16711C16.0335 1.16711 16.4138 2.00286 16.4138 2.92795V3.00288H14.0552V3.04035C14.0552 3.72336 14.4299 4.13259 15.0401 4.13259C15.2407 4.14882 15.4399 4.08745 15.5979 3.96078C15.7558 3.83411 15.8607 3.6515 15.8916 3.44958H16.3996C16.3529 3.7796 16.1832 4.07881 15.9254 4.28531C15.6676 4.49182 15.3415 4.58984 15.0146 4.55911ZM14.9833 1.59364C14.4753 1.59364 14.1319 1.9654 14.0552 2.56772H15.8859C15.8376 1.95964 15.5027 1.59364 14.9833 1.59364Z" fill="#192062"/>
    <path d="M19.8168 4.45542H19.3257V3.98279C19.2228 4.16659 19.0704 4.31679 18.8865 4.41581C18.7025 4.51483 18.4945 4.55856 18.287 4.54188C17.3958 4.54188 16.8281 3.89057 16.8281 2.84733C16.8281 1.94241 17.2908 1.15277 18.2643 1.15277C18.4658 1.1424 18.6665 1.18464 18.8474 1.27545C19.0282 1.36626 19.1832 1.50262 19.2974 1.67151V0.0374756H19.8168V4.45542ZM17.3702 2.8358C17.3702 3.61103 17.7505 4.10672 18.3494 4.10672C18.9483 4.10672 19.3144 3.63697 19.3144 2.85309C19.3144 2.21619 19.0306 1.61387 18.3352 1.61387C17.7392 1.61387 17.3702 2.08362 17.3702 2.8358Z" fill="#192062"/>
    <path d="M22.808 1.69457C22.9226 1.52276 23.079 1.38393 23.2619 1.29153C23.4449 1.19913 23.6483 1.1563 23.8524 1.16718C24.7039 1.16718 25.2715 1.82425 25.2715 2.84156C25.2715 3.85887 24.7039 4.54765 23.8184 4.54765C23.6098 4.56323 23.4011 4.5191 23.2159 4.42027C23.0308 4.32144 22.8767 4.17187 22.7711 3.98856V4.45542H22.2886V0.0374756H22.808V1.69457ZM22.7909 2.88191C22.7909 3.63985 23.1684 4.1096 23.773 4.1096C24.3775 4.1096 24.7493 3.61103 24.7493 2.84733C24.7493 2.08362 24.3605 1.61387 23.773 1.61387C23.0464 1.61387 22.7909 2.23925 22.7909 2.88191Z" fill="#192062"/>
    <path d="M27.1759 4.86492C27.0056 5.31738 26.8297 5.74678 26.2677 5.74678C26.1372 5.74377 26.0076 5.72441 25.8817 5.68915V5.2194C25.9894 5.2585 26.1023 5.28084 26.2166 5.28568C26.297 5.28324 26.3749 5.25678 26.4405 5.20962C26.5061 5.16246 26.5566 5.09669 26.5856 5.02055L26.8297 4.44417L25.5752 1.27408H26.1684L27.1021 3.82456L27.9848 1.25391H28.5269L27.1759 4.86492Z" fill="#192062"/>
  </g>
  <defs>
    <clipPath id="clip0_110_4671">
      <rect width="28.47" height="14.1818" fill="white" transform="translate(0.0571289)"/>
    </clipPath>
  </defs>
</svg>